<svg width="22" height="22" viewBox="0 0 22 22" fill="none" xmlns="http://www.w3.org/2000/svg">
<mask id="path-1-outside-1" maskUnits="userSpaceOnUse" x="0" y="0" width="22" height="22" fill="black">
<rect fill="white" width="22" height="22"/>
<path fill-rule="evenodd" clip-rule="evenodd" d="M1 11C1 5.48566 5.48566 1 11 1C16.5143 1 21 5.48566 21 11C21 16.5143 16.5143 21 11 21C5.48566 21 1 16.5143 1 11ZM2.54918 11C2.54918 15.6592 6.34082 19.4508 11 19.4508C15.6592 19.4508 19.4508 15.6592 19.4508 11C19.4508 6.34082 15.66 2.54918 11 2.54918C6.34082 2.54918 2.54918 6.34082 2.54918 11ZM11.7746 10.6747L14.5631 12.7661C14.9055 13.0225 14.9752 13.5081 14.718 13.8498C14.5662 14.0543 14.3338 14.1604 14.0975 14.1604C13.9357 14.1604 13.773 14.11 13.6336 14.0055L10.5352 11.6817C10.34 11.5361 10.2253 11.306 10.2253 11.062V6.41442C10.2253 5.98606 10.5716 5.63981 11 5.63981C11.4283 5.63981 11.7746 5.98606 11.7746 6.41442V10.6747Z"/>
</mask>
<path fill-rule="evenodd" clip-rule="evenodd" d="M1 11C1 5.48566 5.48566 1 11 1C16.5143 1 21 5.48566 21 11C21 16.5143 16.5143 21 11 21C5.48566 21 1 16.5143 1 11ZM2.54918 11C2.54918 15.6592 6.34082 19.4508 11 19.4508C15.6592 19.4508 19.4508 15.6592 19.4508 11C19.4508 6.34082 15.66 2.54918 11 2.54918C6.34082 2.54918 2.54918 6.34082 2.54918 11ZM11.7746 10.6747L14.5631 12.7661C14.9055 13.0225 14.9752 13.5081 14.718 13.8498C14.5662 14.0543 14.3338 14.1604 14.0975 14.1604C13.9357 14.1604 13.773 14.11 13.6336 14.0055L10.5352 11.6817C10.34 11.5361 10.2253 11.306 10.2253 11.062V6.41442C10.2253 5.98606 10.5716 5.63981 11 5.63981C11.4283 5.63981 11.7746 5.98606 11.7746 6.41442V10.6747Z" fill="#FF8B6A"/>
<path d="M14.5631 12.7661L14.5031 12.8461L14.5032 12.8461L14.5631 12.7661ZM11.7746 10.6747H11.6746V10.7247L11.7146 10.7547L11.7746 10.6747ZM14.718 13.8498L14.6381 13.7896L14.6377 13.7902L14.718 13.8498ZM13.6336 14.0055L13.6936 13.9255L13.6936 13.9255L13.6336 14.0055ZM10.5352 11.6817L10.5952 11.6017L10.595 11.6015L10.5352 11.6817ZM11 0.9C5.43044 0.9 0.9 5.43044 0.9 11H1.1C1.1 5.54089 5.54089 1.1 11 1.1V0.9ZM21.1 11C21.1 5.43044 16.5696 0.9 11 0.9V1.1C16.4591 1.1 20.9 5.54089 20.9 11H21.1ZM11 21.1C16.5696 21.1 21.1 16.5696 21.1 11H20.9C20.9 16.4591 16.4591 20.9 11 20.9V21.1ZM0.9 11C0.9 16.5696 5.43044 21.1 11 21.1V20.9C5.54089 20.9 1.1 16.4591 1.1 11H0.9ZM11 19.3508C6.39605 19.3508 2.64918 15.604 2.64918 11H2.44918C2.44918 15.7144 6.28559 19.5508 11 19.5508V19.3508ZM19.3508 11C19.3508 15.604 15.604 19.3508 11 19.3508V19.5508C15.7144 19.5508 19.5508 15.7144 19.5508 11H19.3508ZM11 2.64918C15.6047 2.64918 19.3508 6.39604 19.3508 11H19.5508C19.5508 6.2856 15.7152 2.44918 11 2.44918V2.64918ZM2.64918 11C2.64918 6.39605 6.39605 2.64918 11 2.64918V2.44918C6.28559 2.44918 2.44918 6.28559 2.44918 11H2.64918ZM14.6231 12.6861L11.8346 10.5947L11.7146 10.7547L14.5031 12.8461L14.6231 12.6861ZM14.7979 13.9099C15.0885 13.5239 15.0096 12.9755 14.6231 12.686L14.5032 12.8461C14.8014 13.0694 14.862 13.4923 14.6381 13.7896L14.7979 13.9099ZM14.0975 14.2604C14.3637 14.2604 14.6266 14.1406 14.7983 13.9094L14.6377 13.7902C14.5058 13.9679 14.3039 14.0604 14.0975 14.0604V14.2604ZM13.5735 14.0855C13.7309 14.2035 13.9148 14.2604 14.0975 14.2604V14.0604C13.9566 14.0604 13.8151 14.0166 13.6936 13.9255L13.5735 14.0855ZM10.4752 11.7617L13.5736 14.0855L13.6936 13.9255L10.5952 11.6017L10.4752 11.7617ZM10.1253 11.062C10.1253 11.3373 10.2547 11.5972 10.4754 11.7618L10.595 11.6015C10.4253 11.4749 10.3253 11.2747 10.3253 11.062H10.1253ZM10.1253 6.41442V11.062H10.3253V6.41442H10.1253ZM11 5.53981C10.5164 5.53981 10.1253 5.93083 10.1253 6.41442H10.3253C10.3253 6.04128 10.6268 5.73981 11 5.73981V5.53981ZM11.8746 6.41442C11.8746 5.93083 11.4835 5.53981 11 5.53981V5.73981C11.3731 5.73981 11.6746 6.04129 11.6746 6.41442H11.8746ZM11.8746 10.6747V6.41442H11.6746V10.6747H11.8746Z" fill="#FF8B6A" mask="url(#path-1-outside-1)"/>
</svg>
