<svg width="375" height="1142" viewBox="0 0 375 1142" fill="none" xmlns="http://www.w3.org/2000/svg">
<mask id="mask0" mask-type="alpha" maskUnits="userSpaceOnUse" x="0" y="749" width="375" height="371">
<rect y="749" width="375" height="371" fill="white"/>
</mask>
<g mask="url(#mask0)">
<line x1="374.354" y1="749.354" x2="-1.64646" y2="1125.35" stroke="#E0F3FB"/>
<line x1="495.354" y1="749.354" x2="119.354" y2="1125.35" stroke="#E0F3FB"/>
<line x1="616.354" y1="749.354" x2="240.354" y2="1125.35" stroke="#E0F3FB"/>
<line x1="429.354" y1="749.354" x2="53.3535" y2="1125.35" stroke="#E0F3FB"/>
<line x1="550.354" y1="749.354" x2="174.354" y2="1125.35" stroke="#E0F3FB"/>
<line x1="671.354" y1="749.354" x2="295.354" y2="1125.35" stroke="#E0F3FB"/>
<line x1="319.354" y1="749.354" x2="-56.6465" y2="1125.35" stroke="#E0F3FB"/>
<line x1="264.354" y1="749.354" x2="-111.646" y2="1125.35" stroke="#E0F3FB"/>
<line x1="209.354" y1="749.354" x2="-166.646" y2="1125.35" stroke="#E0F3FB"/>
<line x1="154.354" y1="749.354" x2="-221.646" y2="1125.35" stroke="#E0F3FB"/>
<line x1="99.3536" y1="749.354" x2="-276.646" y2="1125.35" stroke="#E0F3FB"/>
<line x1="385.354" y1="749.354" x2="9.35354" y2="1125.35" stroke="#E0F3FB"/>
<line x1="506.354" y1="749.354" x2="130.354" y2="1125.35" stroke="#E0F3FB"/>
<line x1="627.354" y1="749.354" x2="251.354" y2="1125.35" stroke="#E0F3FB"/>
<line x1="440.354" y1="749.354" x2="64.3535" y2="1125.35" stroke="#E0F3FB"/>
<line x1="561.354" y1="749.354" x2="185.354" y2="1125.35" stroke="#E0F3FB"/>
<line x1="682.354" y1="749.354" x2="306.354" y2="1125.35" stroke="#E0F3FB"/>
<line x1="330.354" y1="749.354" x2="-45.6465" y2="1125.35" stroke="#E0F3FB"/>
<line x1="275.354" y1="749.354" x2="-100.646" y2="1125.35" stroke="#E0F3FB"/>
<line x1="220.354" y1="749.354" x2="-155.646" y2="1125.35" stroke="#E0F3FB"/>
<line x1="165.354" y1="749.354" x2="-210.646" y2="1125.35" stroke="#E0F3FB"/>
<line x1="110.354" y1="749.354" x2="-265.646" y2="1125.35" stroke="#E0F3FB"/>
<line x1="396.354" y1="749.354" x2="20.3535" y2="1125.35" stroke="#E0F3FB"/>
<line x1="517.354" y1="749.354" x2="141.354" y2="1125.35" stroke="#E0F3FB"/>
<line x1="638.354" y1="749.354" x2="262.354" y2="1125.35" stroke="#E0F3FB"/>
<line x1="451.354" y1="749.354" x2="75.3535" y2="1125.35" stroke="#E0F3FB"/>
<line x1="572.354" y1="749.354" x2="196.354" y2="1125.35" stroke="#E0F3FB"/>
<line x1="693.354" y1="749.354" x2="317.354" y2="1125.35" stroke="#E0F3FB"/>
<line x1="341.354" y1="749.354" x2="-34.6465" y2="1125.35" stroke="#E0F3FB"/>
<line x1="286.354" y1="749.354" x2="-89.6465" y2="1125.35" stroke="#E0F3FB"/>
<line x1="231.354" y1="749.354" x2="-144.646" y2="1125.35" stroke="#E0F3FB"/>
<line x1="176.354" y1="749.354" x2="-199.646" y2="1125.35" stroke="#E0F3FB"/>
<line x1="121.354" y1="749.354" x2="-254.646" y2="1125.35" stroke="#E0F3FB"/>
<line x1="407.354" y1="749.354" x2="31.3535" y2="1125.35" stroke="#E0F3FB"/>
<line x1="528.354" y1="749.354" x2="152.354" y2="1125.35" stroke="#E0F3FB"/>
<line x1="649.354" y1="749.354" x2="273.354" y2="1125.35" stroke="#E0F3FB"/>
<line x1="462.354" y1="749.354" x2="86.3535" y2="1125.35" stroke="#E0F3FB"/>
<line x1="583.354" y1="749.354" x2="207.354" y2="1125.35" stroke="#E0F3FB"/>
<line x1="704.354" y1="749.354" x2="328.354" y2="1125.35" stroke="#E0F3FB"/>
<line x1="352.354" y1="749.354" x2="-23.6465" y2="1125.35" stroke="#E0F3FB"/>
<line x1="297.354" y1="749.354" x2="-78.6465" y2="1125.35" stroke="#E0F3FB"/>
<line x1="242.354" y1="749.354" x2="-133.646" y2="1125.35" stroke="#E0F3FB"/>
<line x1="187.354" y1="749.354" x2="-188.646" y2="1125.35" stroke="#E0F3FB"/>
<line x1="132.354" y1="749.354" x2="-243.646" y2="1125.35" stroke="#E0F3FB"/>
<line x1="418.354" y1="749.354" x2="42.3535" y2="1125.35" stroke="#E0F3FB"/>
<line x1="539.354" y1="749.354" x2="163.354" y2="1125.35" stroke="#E0F3FB"/>
<line x1="660.354" y1="749.354" x2="284.354" y2="1125.35" stroke="#E0F3FB"/>
<line x1="473.354" y1="749.354" x2="97.3535" y2="1125.35" stroke="#E0F3FB"/>
<line x1="594.354" y1="749.354" x2="218.354" y2="1125.35" stroke="#E0F3FB"/>
<line x1="715.354" y1="749.354" x2="339.354" y2="1125.35" stroke="#E0F3FB"/>
<line x1="726.354" y1="749.354" x2="350.354" y2="1125.35" stroke="#E0F3FB"/>
<line x1="363.354" y1="749.354" x2="-12.6465" y2="1125.35" stroke="#E0F3FB"/>
<line x1="484.354" y1="749.354" x2="108.354" y2="1125.35" stroke="#E0F3FB"/>
<line x1="605.354" y1="749.354" x2="229.354" y2="1125.35" stroke="#E0F3FB"/>
<line x1="308.354" y1="749.354" x2="-67.6465" y2="1125.35" stroke="#E0F3FB"/>
<line x1="253.354" y1="749.354" x2="-122.646" y2="1125.35" stroke="#E0F3FB"/>
<line x1="198.354" y1="749.354" x2="-177.646" y2="1125.35" stroke="#E0F3FB"/>
<line x1="143.354" y1="749.354" x2="-232.646" y2="1125.35" stroke="#E0F3FB"/>
<line x1="737.354" y1="749.354" x2="361.354" y2="1125.35" stroke="#E0F3FB"/>
<line x1="44.3536" y1="749.354" x2="-331.646" y2="1125.35" stroke="#E0F3FB"/>
<line x1="55.3536" y1="749.354" x2="-320.646" y2="1125.35" stroke="#E0F3FB"/>
<line x1="0.353553" y1="749.354" x2="-375.646" y2="1125.35" stroke="#E0F3FB"/>
<line x1="66.3536" y1="749.354" x2="-309.646" y2="1125.35" stroke="#E0F3FB"/>
<line x1="11.3536" y1="749.354" x2="-364.646" y2="1125.35" stroke="#E0F3FB"/>
<line x1="77.3536" y1="749.354" x2="-298.646" y2="1125.35" stroke="#E0F3FB"/>
<line x1="22.3536" y1="749.354" x2="-353.646" y2="1125.35" stroke="#E0F3FB"/>
<line x1="88.3536" y1="749.354" x2="-287.646" y2="1125.35" stroke="#E0F3FB"/>
<line x1="33.3536" y1="749.354" x2="-342.646" y2="1125.35" stroke="#E0F3FB"/>
</g>
<mask id="mask1" mask-type="alpha" maskUnits="userSpaceOnUse" x="0" y="1112" width="375" height="30">
<rect y="1112" width="375" height="30" fill="white"/>
</mask>
<g mask="url(#mask1)">
<line x1="374.354" y1="1112.35" x2="-1.64646" y2="1488.35" stroke="#E0F3FB"/>
<line x1="495.354" y1="1112.35" x2="119.354" y2="1488.35" stroke="#E0F3FB"/>
<line x1="616.354" y1="1112.35" x2="240.354" y2="1488.35" stroke="#E0F3FB"/>
<line x1="429.354" y1="1112.35" x2="53.3535" y2="1488.35" stroke="#E0F3FB"/>
<line x1="550.354" y1="1112.35" x2="174.354" y2="1488.35" stroke="#E0F3FB"/>
<line x1="671.354" y1="1112.35" x2="295.354" y2="1488.35" stroke="#E0F3FB"/>
<line x1="319.354" y1="1112.35" x2="-56.6465" y2="1488.35" stroke="#E0F3FB"/>
<line x1="264.354" y1="1112.35" x2="-111.646" y2="1488.35" stroke="#E0F3FB"/>
<line x1="209.354" y1="1112.35" x2="-166.646" y2="1488.35" stroke="#E0F3FB"/>
<line x1="154.354" y1="1112.35" x2="-221.646" y2="1488.35" stroke="#E0F3FB"/>
<line x1="99.3536" y1="1112.35" x2="-276.646" y2="1488.35" stroke="#E0F3FB"/>
<line x1="385.354" y1="1112.35" x2="9.35354" y2="1488.35" stroke="#E0F3FB"/>
<line x1="506.354" y1="1112.35" x2="130.354" y2="1488.35" stroke="#E0F3FB"/>
<line x1="627.354" y1="1112.35" x2="251.354" y2="1488.35" stroke="#E0F3FB"/>
<line x1="440.354" y1="1112.35" x2="64.3535" y2="1488.35" stroke="#E0F3FB"/>
<line x1="561.354" y1="1112.35" x2="185.354" y2="1488.35" stroke="#E0F3FB"/>
<line x1="682.354" y1="1112.35" x2="306.354" y2="1488.35" stroke="#E0F3FB"/>
<line x1="330.354" y1="1112.35" x2="-45.6465" y2="1488.35" stroke="#E0F3FB"/>
<line x1="275.354" y1="1112.35" x2="-100.646" y2="1488.35" stroke="#E0F3FB"/>
<line x1="220.354" y1="1112.35" x2="-155.646" y2="1488.35" stroke="#E0F3FB"/>
<line x1="165.354" y1="1112.35" x2="-210.646" y2="1488.35" stroke="#E0F3FB"/>
<line x1="110.354" y1="1112.35" x2="-265.646" y2="1488.35" stroke="#E0F3FB"/>
<line x1="396.354" y1="1112.35" x2="20.3535" y2="1488.35" stroke="#E0F3FB"/>
<line x1="517.354" y1="1112.35" x2="141.354" y2="1488.35" stroke="#E0F3FB"/>
<line x1="638.354" y1="1112.35" x2="262.354" y2="1488.35" stroke="#E0F3FB"/>
<line x1="451.354" y1="1112.35" x2="75.3535" y2="1488.35" stroke="#E0F3FB"/>
<line x1="572.354" y1="1112.35" x2="196.354" y2="1488.35" stroke="#E0F3FB"/>
<line x1="693.354" y1="1112.35" x2="317.354" y2="1488.35" stroke="#E0F3FB"/>
<line x1="341.354" y1="1112.35" x2="-34.6465" y2="1488.35" stroke="#E0F3FB"/>
<line x1="286.354" y1="1112.35" x2="-89.6465" y2="1488.35" stroke="#E0F3FB"/>
<line x1="231.354" y1="1112.35" x2="-144.646" y2="1488.35" stroke="#E0F3FB"/>
<line x1="176.354" y1="1112.35" x2="-199.646" y2="1488.35" stroke="#E0F3FB"/>
<line x1="121.354" y1="1112.35" x2="-254.646" y2="1488.35" stroke="#E0F3FB"/>
<line x1="407.354" y1="1112.35" x2="31.3535" y2="1488.35" stroke="#E0F3FB"/>
<line x1="528.354" y1="1112.35" x2="152.354" y2="1488.35" stroke="#E0F3FB"/>
<line x1="649.354" y1="1112.35" x2="273.354" y2="1488.35" stroke="#E0F3FB"/>
<line x1="462.354" y1="1112.35" x2="86.3535" y2="1488.35" stroke="#E0F3FB"/>
<line x1="583.354" y1="1112.35" x2="207.354" y2="1488.35" stroke="#E0F3FB"/>
<line x1="704.354" y1="1112.35" x2="328.354" y2="1488.35" stroke="#E0F3FB"/>
<line x1="352.354" y1="1112.35" x2="-23.6465" y2="1488.35" stroke="#E0F3FB"/>
<line x1="297.354" y1="1112.35" x2="-78.6465" y2="1488.35" stroke="#E0F3FB"/>
<line x1="242.354" y1="1112.35" x2="-133.646" y2="1488.35" stroke="#E0F3FB"/>
<line x1="187.354" y1="1112.35" x2="-188.646" y2="1488.35" stroke="#E0F3FB"/>
<line x1="132.354" y1="1112.35" x2="-243.646" y2="1488.35" stroke="#E0F3FB"/>
<line x1="418.354" y1="1112.35" x2="42.3535" y2="1488.35" stroke="#E0F3FB"/>
<line x1="539.354" y1="1112.35" x2="163.354" y2="1488.35" stroke="#E0F3FB"/>
<line x1="660.354" y1="1112.35" x2="284.354" y2="1488.35" stroke="#E0F3FB"/>
<line x1="473.354" y1="1112.35" x2="97.3535" y2="1488.35" stroke="#E0F3FB"/>
<line x1="594.354" y1="1112.35" x2="218.354" y2="1488.35" stroke="#E0F3FB"/>
<line x1="715.354" y1="1112.35" x2="339.354" y2="1488.35" stroke="#E0F3FB"/>
<line x1="726.354" y1="1112.35" x2="350.354" y2="1488.35" stroke="#E0F3FB"/>
<line x1="363.354" y1="1112.35" x2="-12.6465" y2="1488.35" stroke="#E0F3FB"/>
<line x1="484.354" y1="1112.35" x2="108.354" y2="1488.35" stroke="#E0F3FB"/>
<line x1="605.354" y1="1112.35" x2="229.354" y2="1488.35" stroke="#E0F3FB"/>
<line x1="308.354" y1="1112.35" x2="-67.6465" y2="1488.35" stroke="#E0F3FB"/>
<line x1="253.354" y1="1112.35" x2="-122.646" y2="1488.35" stroke="#E0F3FB"/>
<line x1="198.354" y1="1112.35" x2="-177.646" y2="1488.35" stroke="#E0F3FB"/>
<line x1="143.354" y1="1112.35" x2="-232.646" y2="1488.35" stroke="#E0F3FB"/>
<line x1="737.354" y1="1112.35" x2="361.354" y2="1488.35" stroke="#E0F3FB"/>
<line x1="44.3536" y1="1112.35" x2="-331.646" y2="1488.35" stroke="#E0F3FB"/>
<line x1="55.3536" y1="1112.35" x2="-320.646" y2="1488.35" stroke="#E0F3FB"/>
<line x1="0.353553" y1="1112.35" x2="-375.646" y2="1488.35" stroke="#E0F3FB"/>
<line x1="66.3536" y1="1112.35" x2="-309.646" y2="1488.35" stroke="#E0F3FB"/>
<line x1="11.3536" y1="1112.35" x2="-364.646" y2="1488.35" stroke="#E0F3FB"/>
<line x1="77.3536" y1="1112.35" x2="-298.646" y2="1488.35" stroke="#E0F3FB"/>
<line x1="22.3536" y1="1112.35" x2="-353.646" y2="1488.35" stroke="#E0F3FB"/>
<line x1="88.3536" y1="1112.35" x2="-287.646" y2="1488.35" stroke="#E0F3FB"/>
<line x1="33.3536" y1="1112.35" x2="-342.646" y2="1488.35" stroke="#E0F3FB"/>
</g>
<mask id="mask2" mask-type="alpha" maskUnits="userSpaceOnUse" x="0" y="374" width="375" height="375">
<rect y="374" width="375" height="375" fill="white"/>
</mask>
<g mask="url(#mask2)">
<line x1="374.354" y1="374.354" x2="-1.64646" y2="750.354" stroke="#E0F3FB"/>
<line x1="495.354" y1="374.354" x2="119.354" y2="750.354" stroke="#E0F3FB"/>
<line x1="616.354" y1="374.354" x2="240.354" y2="750.354" stroke="#E0F3FB"/>
<line x1="429.354" y1="374.354" x2="53.3535" y2="750.354" stroke="#E0F3FB"/>
<line x1="550.354" y1="374.354" x2="174.354" y2="750.354" stroke="#E0F3FB"/>
<line x1="671.354" y1="374.354" x2="295.354" y2="750.354" stroke="#E0F3FB"/>
<line x1="319.354" y1="374.354" x2="-56.6465" y2="750.354" stroke="#E0F3FB"/>
<line x1="264.354" y1="374.354" x2="-111.646" y2="750.354" stroke="#E0F3FB"/>
<line x1="209.354" y1="374.354" x2="-166.646" y2="750.354" stroke="#E0F3FB"/>
<line x1="154.354" y1="374.354" x2="-221.646" y2="750.354" stroke="#E0F3FB"/>
<line x1="99.3536" y1="374.354" x2="-276.646" y2="750.354" stroke="#E0F3FB"/>
<line x1="385.354" y1="374.354" x2="9.35354" y2="750.354" stroke="#E0F3FB"/>
<line x1="506.354" y1="374.354" x2="130.354" y2="750.354" stroke="#E0F3FB"/>
<line x1="627.354" y1="374.354" x2="251.354" y2="750.354" stroke="#E0F3FB"/>
<line x1="440.354" y1="374.354" x2="64.3535" y2="750.354" stroke="#E0F3FB"/>
<line x1="561.354" y1="374.354" x2="185.354" y2="750.354" stroke="#E0F3FB"/>
<line x1="682.354" y1="374.354" x2="306.354" y2="750.354" stroke="#E0F3FB"/>
<line x1="330.354" y1="374.354" x2="-45.6465" y2="750.354" stroke="#E0F3FB"/>
<line x1="275.354" y1="374.354" x2="-100.646" y2="750.354" stroke="#E0F3FB"/>
<line x1="220.354" y1="374.354" x2="-155.646" y2="750.354" stroke="#E0F3FB"/>
<line x1="165.354" y1="374.354" x2="-210.646" y2="750.354" stroke="#E0F3FB"/>
<line x1="110.354" y1="374.354" x2="-265.646" y2="750.354" stroke="#E0F3FB"/>
<line x1="396.354" y1="374.354" x2="20.3535" y2="750.354" stroke="#E0F3FB"/>
<line x1="517.354" y1="374.354" x2="141.354" y2="750.354" stroke="#E0F3FB"/>
<line x1="638.354" y1="374.354" x2="262.354" y2="750.354" stroke="#E0F3FB"/>
<line x1="451.354" y1="374.354" x2="75.3535" y2="750.354" stroke="#E0F3FB"/>
<line x1="572.354" y1="374.354" x2="196.354" y2="750.354" stroke="#E0F3FB"/>
<line x1="693.354" y1="374.354" x2="317.354" y2="750.354" stroke="#E0F3FB"/>
<line x1="341.354" y1="374.354" x2="-34.6465" y2="750.354" stroke="#E0F3FB"/>
<line x1="286.354" y1="374.354" x2="-89.6465" y2="750.354" stroke="#E0F3FB"/>
<line x1="231.354" y1="374.354" x2="-144.646" y2="750.354" stroke="#E0F3FB"/>
<line x1="176.354" y1="374.354" x2="-199.646" y2="750.354" stroke="#E0F3FB"/>
<line x1="121.354" y1="374.354" x2="-254.646" y2="750.354" stroke="#E0F3FB"/>
<line x1="407.354" y1="374.354" x2="31.3535" y2="750.354" stroke="#E0F3FB"/>
<line x1="528.354" y1="374.354" x2="152.354" y2="750.354" stroke="#E0F3FB"/>
<line x1="649.354" y1="374.354" x2="273.354" y2="750.354" stroke="#E0F3FB"/>
<line x1="462.354" y1="374.354" x2="86.3535" y2="750.354" stroke="#E0F3FB"/>
<line x1="583.354" y1="374.354" x2="207.354" y2="750.354" stroke="#E0F3FB"/>
<line x1="704.354" y1="374.354" x2="328.354" y2="750.354" stroke="#E0F3FB"/>
<line x1="352.354" y1="374.354" x2="-23.6465" y2="750.354" stroke="#E0F3FB"/>
<line x1="297.354" y1="374.354" x2="-78.6465" y2="750.354" stroke="#E0F3FB"/>
<line x1="242.354" y1="374.354" x2="-133.646" y2="750.354" stroke="#E0F3FB"/>
<line x1="187.354" y1="374.354" x2="-188.646" y2="750.354" stroke="#E0F3FB"/>
<line x1="132.354" y1="374.354" x2="-243.646" y2="750.354" stroke="#E0F3FB"/>
<line x1="418.354" y1="374.354" x2="42.3535" y2="750.354" stroke="#E0F3FB"/>
<line x1="539.354" y1="374.354" x2="163.354" y2="750.354" stroke="#E0F3FB"/>
<line x1="660.354" y1="374.354" x2="284.354" y2="750.354" stroke="#E0F3FB"/>
<line x1="473.354" y1="374.354" x2="97.3535" y2="750.354" stroke="#E0F3FB"/>
<line x1="594.354" y1="374.354" x2="218.354" y2="750.354" stroke="#E0F3FB"/>
<line x1="715.354" y1="374.354" x2="339.354" y2="750.354" stroke="#E0F3FB"/>
<line x1="726.354" y1="374.354" x2="350.354" y2="750.354" stroke="#E0F3FB"/>
<line x1="363.354" y1="374.354" x2="-12.6465" y2="750.354" stroke="#E0F3FB"/>
<line x1="484.354" y1="374.354" x2="108.354" y2="750.354" stroke="#E0F3FB"/>
<line x1="605.354" y1="374.354" x2="229.354" y2="750.354" stroke="#E0F3FB"/>
<line x1="308.354" y1="374.354" x2="-67.6465" y2="750.354" stroke="#E0F3FB"/>
<line x1="253.354" y1="374.354" x2="-122.646" y2="750.354" stroke="#E0F3FB"/>
<line x1="198.354" y1="374.354" x2="-177.646" y2="750.354" stroke="#E0F3FB"/>
<line x1="143.354" y1="374.354" x2="-232.646" y2="750.354" stroke="#E0F3FB"/>
<line x1="737.354" y1="374.354" x2="361.354" y2="750.354" stroke="#E0F3FB"/>
<line x1="44.3536" y1="374.354" x2="-331.646" y2="750.354" stroke="#E0F3FB"/>
<line x1="55.3536" y1="374.354" x2="-320.646" y2="750.354" stroke="#E0F3FB"/>
<line x1="0.353553" y1="374.354" x2="-375.646" y2="750.354" stroke="#E0F3FB"/>
<line x1="66.3536" y1="374.354" x2="-309.646" y2="750.354" stroke="#E0F3FB"/>
<line x1="11.3536" y1="374.354" x2="-364.646" y2="750.354" stroke="#E0F3FB"/>
<line x1="77.3536" y1="374.354" x2="-298.646" y2="750.354" stroke="#E0F3FB"/>
<line x1="22.3536" y1="374.354" x2="-353.646" y2="750.354" stroke="#E0F3FB"/>
<line x1="88.3536" y1="374.354" x2="-287.646" y2="750.354" stroke="#E0F3FB"/>
<line x1="33.3536" y1="374.354" x2="-342.646" y2="750.354" stroke="#E0F3FB"/>
</g>
<mask id="mask3" mask-type="alpha" maskUnits="userSpaceOnUse" x="0" y="0" width="375" height="375">
<rect width="375" height="375" fill="white"/>
</mask>
<g mask="url(#mask3)">
<line x1="374.354" y1="0.353553" x2="-1.64646" y2="376.354" stroke="#E0F3FB"/>
<line x1="495.354" y1="0.353553" x2="119.354" y2="376.354" stroke="#E0F3FB"/>
<line x1="616.354" y1="0.353553" x2="240.354" y2="376.354" stroke="#E0F3FB"/>
<line x1="429.354" y1="0.353553" x2="53.3535" y2="376.354" stroke="#E0F3FB"/>
<line x1="550.354" y1="0.353553" x2="174.354" y2="376.354" stroke="#E0F3FB"/>
<line x1="671.354" y1="0.353553" x2="295.354" y2="376.354" stroke="#E0F3FB"/>
<line x1="319.354" y1="0.353553" x2="-56.6465" y2="376.354" stroke="#E0F3FB"/>
<line x1="264.354" y1="0.353553" x2="-111.646" y2="376.354" stroke="#E0F3FB"/>
<line x1="209.354" y1="0.353553" x2="-166.646" y2="376.354" stroke="#E0F3FB"/>
<line x1="154.354" y1="0.353553" x2="-221.646" y2="376.354" stroke="#E0F3FB"/>
<line x1="99.3536" y1="0.353553" x2="-276.646" y2="376.354" stroke="#E0F3FB"/>
<line x1="385.354" y1="0.353553" x2="9.35354" y2="376.354" stroke="#E0F3FB"/>
<line x1="506.354" y1="0.353553" x2="130.354" y2="376.354" stroke="#E0F3FB"/>
<line x1="627.354" y1="0.353553" x2="251.354" y2="376.354" stroke="#E0F3FB"/>
<line x1="440.354" y1="0.353553" x2="64.3535" y2="376.354" stroke="#E0F3FB"/>
<line x1="561.354" y1="0.353553" x2="185.354" y2="376.354" stroke="#E0F3FB"/>
<line x1="682.354" y1="0.353553" x2="306.354" y2="376.354" stroke="#E0F3FB"/>
<line x1="330.354" y1="0.353553" x2="-45.6465" y2="376.354" stroke="#E0F3FB"/>
<line x1="275.354" y1="0.353553" x2="-100.646" y2="376.354" stroke="#E0F3FB"/>
<line x1="220.354" y1="0.353553" x2="-155.646" y2="376.354" stroke="#E0F3FB"/>
<line x1="165.354" y1="0.353553" x2="-210.646" y2="376.354" stroke="#E0F3FB"/>
<line x1="110.354" y1="0.353553" x2="-265.646" y2="376.354" stroke="#E0F3FB"/>
<line x1="396.354" y1="0.353553" x2="20.3535" y2="376.354" stroke="#E0F3FB"/>
<line x1="517.354" y1="0.353553" x2="141.354" y2="376.354" stroke="#E0F3FB"/>
<line x1="638.354" y1="0.353553" x2="262.354" y2="376.354" stroke="#E0F3FB"/>
<line x1="451.354" y1="0.353553" x2="75.3535" y2="376.354" stroke="#E0F3FB"/>
<line x1="572.354" y1="0.353553" x2="196.354" y2="376.354" stroke="#E0F3FB"/>
<line x1="693.354" y1="0.353553" x2="317.354" y2="376.354" stroke="#E0F3FB"/>
<line x1="341.354" y1="0.353553" x2="-34.6465" y2="376.354" stroke="#E0F3FB"/>
<line x1="286.354" y1="0.353553" x2="-89.6465" y2="376.354" stroke="#E0F3FB"/>
<line x1="231.354" y1="0.353553" x2="-144.646" y2="376.354" stroke="#E0F3FB"/>
<line x1="176.354" y1="0.353553" x2="-199.646" y2="376.354" stroke="#E0F3FB"/>
<line x1="121.354" y1="0.353553" x2="-254.646" y2="376.354" stroke="#E0F3FB"/>
<line x1="407.354" y1="0.353553" x2="31.3535" y2="376.354" stroke="#E0F3FB"/>
<line x1="528.354" y1="0.353553" x2="152.354" y2="376.354" stroke="#E0F3FB"/>
<line x1="649.354" y1="0.353553" x2="273.354" y2="376.354" stroke="#E0F3FB"/>
<line x1="462.354" y1="0.353553" x2="86.3535" y2="376.354" stroke="#E0F3FB"/>
<line x1="583.354" y1="0.353553" x2="207.354" y2="376.354" stroke="#E0F3FB"/>
<line x1="704.354" y1="0.353553" x2="328.354" y2="376.354" stroke="#E0F3FB"/>
<line x1="352.354" y1="0.353553" x2="-23.6465" y2="376.354" stroke="#E0F3FB"/>
<line x1="297.354" y1="0.353553" x2="-78.6465" y2="376.354" stroke="#E0F3FB"/>
<line x1="242.354" y1="0.353553" x2="-133.646" y2="376.354" stroke="#E0F3FB"/>
<line x1="187.354" y1="0.353553" x2="-188.646" y2="376.354" stroke="#E0F3FB"/>
<line x1="132.354" y1="0.353553" x2="-243.646" y2="376.354" stroke="#E0F3FB"/>
<line x1="418.354" y1="0.353553" x2="42.3535" y2="376.354" stroke="#E0F3FB"/>
<line x1="539.354" y1="0.353553" x2="163.354" y2="376.354" stroke="#E0F3FB"/>
<line x1="660.354" y1="0.353553" x2="284.354" y2="376.354" stroke="#E0F3FB"/>
<line x1="473.354" y1="0.353553" x2="97.3535" y2="376.354" stroke="#E0F3FB"/>
<line x1="594.354" y1="0.353553" x2="218.354" y2="376.354" stroke="#E0F3FB"/>
<line x1="715.354" y1="0.353553" x2="339.354" y2="376.354" stroke="#E0F3FB"/>
<line x1="726.354" y1="0.353553" x2="350.354" y2="376.354" stroke="#E0F3FB"/>
<line x1="363.354" y1="0.353553" x2="-12.6465" y2="376.354" stroke="#E0F3FB"/>
<line x1="484.354" y1="0.353553" x2="108.354" y2="376.354" stroke="#E0F3FB"/>
<line x1="605.354" y1="0.353553" x2="229.354" y2="376.354" stroke="#E0F3FB"/>
<line x1="308.354" y1="0.353553" x2="-67.6465" y2="376.354" stroke="#E0F3FB"/>
<line x1="253.354" y1="0.353553" x2="-122.646" y2="376.354" stroke="#E0F3FB"/>
<line x1="198.354" y1="0.353553" x2="-177.646" y2="376.354" stroke="#E0F3FB"/>
<line x1="143.354" y1="0.353553" x2="-232.646" y2="376.354" stroke="#E0F3FB"/>
<line x1="737.354" y1="0.353553" x2="361.354" y2="376.354" stroke="#E0F3FB"/>
<line x1="44.3536" y1="0.353553" x2="-331.646" y2="376.354" stroke="#E0F3FB"/>
<line x1="55.3536" y1="0.353553" x2="-320.646" y2="376.354" stroke="#E0F3FB"/>
<line x1="0.353553" y1="0.353553" x2="-375.646" y2="376.354" stroke="#E0F3FB"/>
<line x1="66.3536" y1="0.353553" x2="-309.646" y2="376.354" stroke="#E0F3FB"/>
<line x1="11.3536" y1="0.353553" x2="-364.646" y2="376.354" stroke="#E0F3FB"/>
<line x1="77.3536" y1="0.353553" x2="-298.646" y2="376.354" stroke="#E0F3FB"/>
<line x1="22.3536" y1="0.353553" x2="-353.646" y2="376.354" stroke="#E0F3FB"/>
<line x1="88.3536" y1="0.353553" x2="-287.646" y2="376.354" stroke="#E0F3FB"/>
<line x1="33.3536" y1="0.353553" x2="-342.646" y2="376.354" stroke="#E0F3FB"/>
</g>
</svg>
