<svg width="31" height="20" viewBox="0 0 31 20" fill="none" xmlns="http://www.w3.org/2000/svg">
<path fill-rule="evenodd" clip-rule="evenodd" d="M16.1286 4.95725C16.1286 5.45028 15.7289 5.84998 15.2359 5.84998C14.7428 5.84998 14.3431 5.45028 14.3431 4.95725V0.892727C14.3431 0.399704 14.7428 0 15.2359 0C15.7289 0 16.1286 0.399704 16.1286 0.892727V4.95725ZM25.5145 14.3433H29.579C30.072 14.3433 30.4717 14.743 30.4717 15.236C30.4717 15.729 30.072 16.1287 29.579 16.1287H25.5145C25.0214 16.1287 24.6217 15.729 24.6217 15.236C24.6217 14.743 25.0214 14.3433 25.5145 14.3433ZM5.84998 15.236C5.84998 14.743 5.45028 14.3433 4.95725 14.3433H0.892727C0.399704 14.3433 0 14.743 0 15.236C0 15.729 0.399704 16.1287 0.892727 16.1287H4.95725C5.45028 16.1287 5.84998 15.729 5.84998 15.236ZM24.1947 7.58783C24.0204 7.76215 23.7919 7.84934 23.5634 7.84934C23.335 7.84934 23.1065 7.76215 22.9322 7.58783C22.5835 7.23919 22.5835 6.67392 22.9322 6.32534L25.1255 4.13209C25.4742 3.78345 26.0395 3.78345 26.388 4.13209C26.7366 4.48072 26.7366 5.046 26.388 5.39458L24.1947 7.58783ZM6.27694 7.58783C6.45126 7.76215 6.67973 7.84934 6.90815 7.84934C7.13657 7.84934 7.36511 7.76221 7.53937 7.58783C7.88801 7.23919 7.88801 6.67398 7.53937 6.32534L5.34612 4.13209C4.99754 3.78345 4.43226 3.78345 4.08362 4.13209C3.73498 4.48072 3.73498 5.04594 4.08362 5.39458L6.27694 7.58783ZM22.3441 18.2144H26.2542C26.7472 18.2144 27.1469 18.6141 27.1469 19.1072C27.1469 19.6002 26.7472 19.9999 26.2542 19.9999H4.21762C3.72459 19.9999 3.32489 19.6002 3.32489 19.1072C3.32489 18.6141 3.72459 18.2144 4.21762 18.2144H8.12693C7.73383 17.2759 7.52868 16.2629 7.52868 15.2358C7.52868 10.986 10.9862 7.52856 15.2359 7.52856C19.4856 7.52856 22.943 10.986 22.943 15.2358C22.943 16.265 22.7374 17.2762 22.3441 18.2144ZM15.2359 9.31402C11.9707 9.31402 9.31413 11.9705 9.31413 15.2358C9.31413 16.2848 9.59219 17.3139 10.1176 18.2144H20.3539C20.8798 17.3129 21.1576 16.2867 21.1576 15.2358C21.1576 11.9705 18.5011 9.31402 15.2359 9.31402Z" fill="#FF8B6A"/>
</svg>
