<svg width="317" height="87" viewBox="0 0 317 87" fill="none" xmlns="http://www.w3.org/2000/svg">
<path d="M44.1592 6.99609H29.9014V14.2471H40.668V20.2529H29.9014V36H23.1631V0.990234H44.1592V6.99609ZM74.1357 6.99609H59.8779V14.2471H70.6445V20.2529H59.8779V29.9941H74.624V36H53.1396V0.990234H74.1357V6.99609ZM89.1953 36H82.1396L97.1299 0.990234H101.891L116.881 36H109.85L106.529 28.2607H92.4912L89.1953 36ZM99.498 11.9033L95.0303 22.2549H103.941L99.498 11.9033ZM119.367 0.990234H144.611V6.99609H135.383V36H128.62V6.99609H119.367V0.990234ZM174.368 35.585C172.545 36.1872 170.625 36.4883 168.606 36.4883C166.588 36.4883 164.668 36.1872 162.845 35.585C161.022 34.9665 159.443 34.0713 158.108 32.8994C155.114 30.2301 153.616 26.3483 153.616 21.2539V0.990234H160.354V21.7422C160.354 24.6556 161.119 26.8285 162.649 28.2607C164.196 29.7581 166.181 30.5068 168.606 30.5068C171.032 30.5068 173.017 29.7581 174.563 28.2607C176.093 26.8285 176.858 24.6556 176.858 21.7422V0.990234H183.597V21.2539C183.597 26.3483 182.099 30.2301 179.104 32.8994C177.77 34.0713 176.191 34.9665 174.368 35.585ZM204.564 20.4971H202.099V36H195.36V0.990234H208.104C211.295 0.990234 213.842 1.861 215.746 3.60254C216.723 4.53027 217.479 5.61263 218.017 6.84961C218.57 8.07031 218.847 9.3724 218.847 10.7559C218.847 12.1393 218.57 13.4495 218.017 14.6865C217.479 15.9072 216.723 16.9814 215.746 17.9092C214.753 18.8532 213.59 19.5368 212.255 19.96L225.365 36H217.016L204.564 20.4971ZM202.099 14.4912H207.714C209.325 14.4912 210.456 14.1413 211.107 13.4414C211.775 12.7253 212.108 11.8464 212.108 10.8047C212.108 9.71419 211.775 8.81087 211.107 8.09473C210.424 7.3623 209.293 6.99609 207.714 6.99609H202.099V14.4912ZM253.853 6.99609H239.595V14.2471H250.361V20.2529H239.595V29.9941H254.341V36H232.856V0.990234H253.853V6.99609ZM285.05 26.0879C286.743 23.9883 287.589 21.4574 287.589 18.4951C287.589 15.5329 286.743 13.002 285.05 10.9023C282.966 8.29818 279.98 6.99609 276.09 6.99609H271.085V29.9941H276.09C279.98 29.9941 282.966 28.6921 285.05 26.0879ZM264.347 0.990234H275.333C280.362 0.990234 284.382 2.09701 287.394 4.31055C289.558 5.92188 291.259 7.97266 292.496 10.4629C293.733 12.9368 294.352 15.6143 294.352 18.4951C294.352 21.376 293.733 24.0615 292.496 26.5518C291.259 29.042 289.558 31.0928 287.394 32.7041C284.399 34.9014 280.379 36 275.333 36H264.347V0.990234ZM0.848633 81.2393L5.26758 76.6494C6.30924 77.805 7.55436 78.7409 9.00293 79.457C10.4678 80.1569 11.9733 80.5068 13.5195 80.5068C15.0169 80.5068 16.2376 80.0918 17.1816 79.2617C18.1419 78.4154 18.6221 77.3574 18.6221 76.0879C18.6221 75.2415 18.3942 74.4928 17.9385 73.8418C17.4827 73.1908 16.8317 72.6374 15.9854 72.1816C15.1553 71.7259 14.3008 71.3271 13.4219 70.9854C12.543 70.6273 11.5176 70.2041 10.3457 69.7158C9.1901 69.2275 8.21354 68.7555 7.41602 68.2998C4.11198 66.363 2.45996 63.71 2.45996 60.3408C2.45996 58.8271 2.78548 57.4437 3.43652 56.1904C4.10384 54.9209 4.97461 53.8792 6.04883 53.0654C7.13932 52.2516 8.36816 51.625 9.73535 51.1855C11.1188 50.7298 12.543 50.502 14.0078 50.502C17.8164 50.502 21.2018 51.6006 24.1641 53.7979L20.6484 58.8027C19.9323 58.1354 19.0208 57.5902 17.9141 57.167C16.8236 56.7275 15.7249 56.5078 14.6182 56.5078C13.9508 56.5078 13.3079 56.5811 12.6895 56.7275C12.071 56.874 11.4932 57.0938 10.9561 57.3867C10.4352 57.6634 10.012 58.054 9.68652 58.5586C9.361 59.0632 9.19824 59.641 9.19824 60.292C9.19824 60.9593 9.42611 61.5697 9.88184 62.123C10.3538 62.6602 10.9642 63.1077 11.7129 63.4658C12.4779 63.8239 13.3405 64.2145 14.3008 64.6377C15.2773 65.0446 16.2702 65.4434 17.2793 65.834C18.2884 66.2246 19.2731 66.7292 20.2334 67.3477C21.21 67.9499 22.0726 68.6172 22.8213 69.3496C23.5863 70.082 24.1966 71.0179 24.6523 72.1572C25.1243 73.2965 25.3604 74.5742 25.3604 75.9902C25.3604 77.9922 24.807 79.807 23.7002 81.4346C22.6097 83.0622 21.1611 84.3154 19.3545 85.1943C17.5641 86.057 15.6191 86.4883 13.5195 86.4883C8.88086 86.4883 4.65723 84.7386 0.848633 81.2393ZM39.8584 50.9902L52.627 71.9619L65.3711 50.9902H70.1074V86H63.3691V66.4932L54.9707 80.2383H50.2588L41.8604 66.4932V86H35.1221V50.9902H39.8584ZM87.877 62.4893C86.8841 64.3122 86.3877 66.3141 86.3877 68.4951C86.3877 70.6761 86.8841 72.6862 87.877 74.5254C88.8698 76.3483 90.2451 77.805 92.0029 78.8955C93.777 79.9697 95.7383 80.5068 97.8867 80.5068C100.035 80.5068 101.988 79.9697 103.746 78.8955C105.52 77.805 106.904 76.3483 107.896 74.5254C108.889 72.6862 109.386 70.6761 109.386 68.4951C109.386 66.3141 108.889 64.3122 107.896 62.4893C106.904 60.6501 105.52 59.1934 103.746 58.1191C101.988 57.0449 100.035 56.5078 97.8867 56.5078C95.7383 56.5078 93.777 57.0449 92.0029 58.1191C90.2451 59.1934 88.8698 60.6501 87.877 62.4893ZM80.9678 75.502C80.0726 73.3047 79.625 70.9691 79.625 68.4951C79.625 66.0212 80.0726 63.6855 80.9678 61.4883C81.8792 59.291 83.1243 57.3867 84.7031 55.7754C86.2819 54.1478 88.2106 52.862 90.4893 51.918C92.7842 50.974 95.25 50.502 97.8867 50.502C100.523 50.502 102.981 50.974 105.26 51.918C107.555 52.862 109.492 54.1478 111.07 55.7754C112.649 57.3867 113.886 59.291 114.781 61.4883C115.676 63.6855 116.124 66.0212 116.124 68.4951C116.124 70.9691 115.676 73.3047 114.781 75.502C113.886 77.6992 112.649 79.6117 111.07 81.2393C109.492 82.8506 107.555 84.1283 105.26 85.0723C102.981 86.0163 100.523 86.4883 97.8867 86.4883C95.25 86.4883 92.7842 86.0163 90.4893 85.0723C88.2106 84.1283 86.2819 82.8506 84.7031 81.2393C83.1243 79.6117 81.8792 77.6992 80.9678 75.502ZM133.137 62.4893C132.144 64.3122 131.647 66.3141 131.647 68.4951C131.647 70.6761 132.144 72.6862 133.137 74.5254C134.13 76.3483 135.505 77.805 137.263 78.8955C139.037 79.9697 140.998 80.5068 143.146 80.5068C145.295 80.5068 147.248 79.9697 149.006 78.8955C150.78 77.805 152.163 76.3483 153.156 74.5254C154.149 72.6862 154.646 70.6761 154.646 68.4951C154.646 66.3141 154.149 64.3122 153.156 62.4893C152.163 60.6501 150.78 59.1934 149.006 58.1191C147.248 57.0449 145.295 56.5078 143.146 56.5078C140.998 56.5078 139.037 57.0449 137.263 58.1191C135.505 59.1934 134.13 60.6501 133.137 62.4893ZM126.228 75.502C125.332 73.3047 124.885 70.9691 124.885 68.4951C124.885 66.0212 125.332 63.6855 126.228 61.4883C127.139 59.291 128.384 57.3867 129.963 55.7754C131.542 54.1478 133.47 52.862 135.749 51.918C138.044 50.974 140.51 50.502 143.146 50.502C145.783 50.502 148.241 50.974 150.52 51.918C152.814 52.862 154.751 54.1478 156.33 55.7754C157.909 57.3867 159.146 59.291 160.041 61.4883C160.936 63.6855 161.384 66.0212 161.384 68.4951C161.384 70.9691 160.936 73.3047 160.041 75.502C159.146 77.6992 157.909 79.6117 156.33 81.2393C154.751 82.8506 152.814 84.1283 150.52 85.0723C148.241 86.0163 145.783 86.4883 143.146 86.4883C140.51 86.4883 138.044 86.0163 135.749 85.0723C133.47 84.1283 131.542 82.8506 129.963 81.2393C128.384 79.6117 127.139 77.6992 126.228 75.502ZM167.361 50.9902H192.605V56.9961H183.377V86H176.614V56.9961H167.361V50.9902ZM226.098 86V70.2529H208.593V86H201.854V50.9902H208.593V64.2471H226.098V50.9902H232.86V86H226.098ZM244.868 86V50.9902H251.606V86H244.868ZM284.61 56.9961H270.353V64.2471H281.119V70.2529H270.353V79.9941H285.099V86H263.614V50.9902H284.61V56.9961ZM292.37 81.2393L296.789 76.6494C297.831 77.805 299.076 78.7409 300.524 79.457C301.989 80.1569 303.495 80.5068 305.041 80.5068C306.538 80.5068 307.759 80.0918 308.703 79.2617C309.663 78.4154 310.144 77.3574 310.144 76.0879C310.144 75.2415 309.916 74.4928 309.46 73.8418C309.004 73.1908 308.353 72.6374 307.507 72.1816C306.677 71.7259 305.822 71.3271 304.943 70.9854C304.064 70.6273 303.039 70.2041 301.867 69.7158C300.712 69.2275 299.735 68.7555 298.938 68.2998C295.633 66.363 293.981 63.71 293.981 60.3408C293.981 58.8271 294.307 57.4437 294.958 56.1904C295.625 54.9209 296.496 53.8792 297.57 53.0654C298.661 52.2516 299.89 51.625 301.257 51.1855C302.64 50.7298 304.064 50.502 305.529 50.502C309.338 50.502 312.723 51.6006 315.686 53.7979L312.17 58.8027C311.454 58.1354 310.542 57.5902 309.436 57.167C308.345 56.7275 307.246 56.5078 306.14 56.5078C305.472 56.5078 304.829 56.5811 304.211 56.7275C303.592 56.874 303.015 57.0938 302.478 57.3867C301.957 57.6634 301.534 58.054 301.208 58.5586C300.882 59.0632 300.72 59.641 300.72 60.292C300.72 60.9593 300.948 61.5697 301.403 62.123C301.875 62.6602 302.486 63.1077 303.234 63.4658C303.999 63.8239 304.862 64.2145 305.822 64.6377C306.799 65.0446 307.792 65.4434 308.801 65.834C309.81 66.2246 310.795 66.7292 311.755 67.3477C312.731 67.9499 313.594 68.6172 314.343 69.3496C315.108 70.082 315.718 71.0179 316.174 72.1572C316.646 73.2965 316.882 74.5742 316.882 75.9902C316.882 77.9922 316.328 79.807 315.222 81.4346C314.131 83.0622 312.683 84.3154 310.876 85.1943C309.086 86.057 307.141 86.4883 305.041 86.4883C300.402 86.4883 296.179 84.7386 292.37 81.2393Z" fill="white"/>
<path d="M44.1592 6.99609V7.99609H45.1592V6.99609H44.1592ZM29.9014 6.99609V5.99609H28.9014V6.99609H29.9014ZM29.9014 14.2471H28.9014V15.2471H29.9014V14.2471ZM40.668 14.2471H41.668V13.2471H40.668V14.2471ZM40.668 20.2529V21.2529H41.668V20.2529H40.668ZM29.9014 20.2529V19.2529H28.9014V20.2529H29.9014ZM29.9014 36V37H30.9014V36H29.9014ZM23.1631 36H22.1631V37H23.1631V36ZM23.1631 0.990234V-0.00976562H22.1631V0.990234H23.1631ZM44.1592 0.990234H45.1592V-0.00976562H44.1592V0.990234ZM44.1592 5.99609H29.9014V7.99609H44.1592V5.99609ZM28.9014 6.99609V14.2471H30.9014V6.99609H28.9014ZM29.9014 15.2471H40.668V13.2471H29.9014V15.2471ZM39.668 14.2471V20.2529H41.668V14.2471H39.668ZM40.668 19.2529H29.9014V21.2529H40.668V19.2529ZM28.9014 20.2529V36H30.9014V20.2529H28.9014ZM29.9014 35H23.1631V37H29.9014V35ZM24.1631 36V0.990234H22.1631V36H24.1631ZM23.1631 1.99023H44.1592V-0.00976562H23.1631V1.99023ZM43.1592 0.990234V6.99609H45.1592V0.990234H43.1592ZM74.1357 6.99609V7.99609H75.1357V6.99609H74.1357ZM59.8779 6.99609V5.99609H58.8779V6.99609H59.8779ZM59.8779 14.2471H58.8779V15.2471H59.8779V14.2471ZM70.6445 14.2471H71.6445V13.2471H70.6445V14.2471ZM70.6445 20.2529V21.2529H71.6445V20.2529H70.6445ZM59.8779 20.2529V19.2529H58.8779V20.2529H59.8779ZM59.8779 29.9941H58.8779V30.9941H59.8779V29.9941ZM74.624 29.9941H75.624V28.9941H74.624V29.9941ZM74.624 36V37H75.624V36H74.624ZM53.1396 36H52.1396V37H53.1396V36ZM53.1396 0.990234V-0.00976562H52.1396V0.990234H53.1396ZM74.1357 0.990234H75.1357V-0.00976562H74.1357V0.990234ZM74.1357 5.99609H59.8779V7.99609H74.1357V5.99609ZM58.8779 6.99609V14.2471H60.8779V6.99609H58.8779ZM59.8779 15.2471H70.6445V13.2471H59.8779V15.2471ZM69.6445 14.2471V20.2529H71.6445V14.2471H69.6445ZM70.6445 19.2529H59.8779V21.2529H70.6445V19.2529ZM58.8779 20.2529V29.9941H60.8779V20.2529H58.8779ZM59.8779 30.9941H74.624V28.9941H59.8779V30.9941ZM73.624 29.9941V36H75.624V29.9941H73.624ZM74.624 35H53.1396V37H74.624V35ZM54.1396 36V0.990234H52.1396V36H54.1396ZM53.1396 1.99023H74.1357V-0.00976562H53.1396V1.99023ZM73.1357 0.990234V6.99609H75.1357V0.990234H73.1357ZM89.1953 36V37H89.8564L90.1154 36.3918L89.1953 36ZM82.1396 36L81.2204 35.6064L80.6237 37H82.1396V36ZM97.1299 0.990234V-0.00976562H96.4702L96.2106 0.596625L97.1299 0.990234ZM101.891 0.990234L102.81 0.596625L102.55 -0.00976562H101.891V0.990234ZM116.881 36V37H118.397L117.8 35.6064L116.881 36ZM109.85 36L108.931 36.3943L109.19 37H109.85V36ZM106.529 28.2607L107.448 27.8665L107.188 27.2607H106.529V28.2607ZM92.4912 28.2607V27.2607H91.8302L91.5712 27.8689L92.4912 28.2607ZM99.498 11.9033L100.417 11.5089L99.5006 9.37396L98.5799 11.5071L99.498 11.9033ZM95.0303 22.2549L94.1121 21.8586L93.5095 23.2549H95.0303V22.2549ZM103.941 22.2549V23.2549H105.459L104.86 21.8604L103.941 22.2549ZM89.1953 35H82.1396V37H89.1953V35ZM83.0589 36.3936L98.0492 1.38384L96.2106 0.596625L81.2204 35.6064L83.0589 36.3936ZM97.1299 1.99023H101.891V-0.00976562H97.1299V1.99023ZM100.971 1.38384L115.962 36.3936L117.8 35.6064L102.81 0.596625L100.971 1.38384ZM116.881 35H109.85V37H116.881V35ZM110.769 35.6057L107.448 27.8665L105.61 28.655L108.931 36.3943L110.769 35.6057ZM106.529 27.2607H92.4912V29.2607H106.529V27.2607ZM91.5712 27.8689L88.2753 35.6082L90.1154 36.3918L93.4113 28.6526L91.5712 27.8689ZM98.5799 11.5071L94.1121 21.8586L95.9484 22.6512L100.416 12.2996L98.5799 11.5071ZM95.0303 23.2549H103.941V21.2549H95.0303V23.2549ZM104.86 21.8604L100.417 11.5089L98.5791 12.2978L103.022 22.6493L104.86 21.8604ZM119.367 0.990234V-0.00976562H118.367V0.990234H119.367ZM144.611 0.990234H145.611V-0.00976562H144.611V0.990234ZM144.611 6.99609V7.99609H145.611V6.99609H144.611ZM135.383 6.99609V5.99609H134.383V6.99609H135.383ZM135.383 36V37H136.383V36H135.383ZM128.62 36H127.62V37H128.62V36ZM128.62 6.99609H129.62V5.99609H128.62V6.99609ZM119.367 6.99609H118.367V7.99609H119.367V6.99609ZM119.367 1.99023H144.611V-0.00976562H119.367V1.99023ZM143.611 0.990234V6.99609H145.611V0.990234H143.611ZM144.611 5.99609H135.383V7.99609H144.611V5.99609ZM134.383 6.99609V36H136.383V6.99609H134.383ZM135.383 35H128.62V37H135.383V35ZM129.62 36V6.99609H127.62V36H129.62ZM128.62 5.99609H119.367V7.99609H128.62V5.99609ZM120.367 6.99609V0.990234H118.367V6.99609H120.367ZM174.368 35.585L174.682 36.5345L174.689 36.5319L174.368 35.585ZM162.845 35.585L162.523 36.532L162.531 36.5345L162.845 35.585ZM158.108 32.8994L157.443 33.6459L157.449 33.6509L158.108 32.8994ZM153.616 0.990234V-0.00976562H152.616V0.990234H153.616ZM160.354 0.990234H161.354V-0.00976562H160.354V0.990234ZM162.649 28.2607L163.345 27.5424L163.339 27.5365L163.333 27.5307L162.649 28.2607ZM174.563 28.2607L173.88 27.5307L173.874 27.5365L173.868 27.5424L174.563 28.2607ZM176.858 0.990234V-0.00976562H175.858V0.990234H176.858ZM183.597 0.990234H184.597V-0.00976562H183.597V0.990234ZM179.104 32.8994L179.764 33.6509L179.77 33.6459L179.104 32.8994ZM174.054 34.6354C172.338 35.2025 170.524 35.4883 168.606 35.4883V37.4883C170.726 37.4883 172.753 37.1718 174.682 36.5345L174.054 34.6354ZM168.606 35.4883C166.689 35.4883 164.875 35.2025 163.158 34.6354L162.531 36.5345C164.46 37.1718 166.487 37.4883 168.606 37.4883V35.4883ZM163.166 34.638C161.457 34.0582 159.996 33.226 158.768 32.148L157.449 33.6509C158.89 34.9166 160.586 35.8747 162.523 36.5319L163.166 34.638ZM158.774 32.1529C156.046 29.722 154.616 26.1455 154.616 21.2539H152.616C152.616 26.5511 154.181 30.7382 157.443 33.6459L158.774 32.1529ZM154.616 21.2539V0.990234H152.616V21.2539H154.616ZM153.616 1.99023H160.354V-0.00976562H153.616V1.99023ZM159.354 0.990234V21.7422H161.354V0.990234H159.354ZM159.354 21.7422C159.354 24.8213 160.165 27.305 161.966 28.9908L163.333 27.5307C162.074 26.3519 161.354 24.4899 161.354 21.7422H159.354ZM161.954 28.9791C163.711 30.6805 165.957 31.5068 168.606 31.5068V29.5068C166.405 29.5068 164.681 28.8357 163.345 27.5424L161.954 28.9791ZM168.606 31.5068C171.256 31.5068 173.502 30.6805 175.259 28.9791L173.868 27.5424C172.532 28.8357 170.808 29.5068 168.606 29.5068V31.5068ZM175.247 28.9908C177.048 27.305 177.858 24.8213 177.858 21.7422H175.858C175.858 24.4899 175.139 26.3519 173.88 27.5307L175.247 28.9908ZM177.858 21.7422V0.990234H175.858V21.7422H177.858ZM176.858 1.99023H183.597V-0.00976562H176.858V1.99023ZM182.597 0.990234V21.2539H184.597V0.990234H182.597ZM182.597 21.2539C182.597 26.1455 181.166 29.722 178.439 32.1529L179.77 33.6459C183.032 30.7382 184.597 26.5511 184.597 21.2539H182.597ZM178.445 32.148C177.217 33.226 175.756 34.0582 174.047 34.638L174.689 36.5319C176.626 35.8747 178.323 34.9166 179.764 33.6509L178.445 32.148ZM204.564 20.4971L205.344 19.8709L205.044 19.4971H204.564V20.4971ZM202.099 20.4971V19.4971H201.099V20.4971H202.099ZM202.099 36V37H203.099V36H202.099ZM195.36 36H194.36V37H195.36V36ZM195.36 0.990234V-0.00976562H194.36V0.990234H195.36ZM215.746 3.60254L216.435 2.87754L216.428 2.871L216.421 2.8646L215.746 3.60254ZM218.017 6.84961L217.099 7.24789L217.103 7.25522L217.106 7.2625L218.017 6.84961ZM218.017 14.6865L217.104 14.2781L217.101 14.2838L218.017 14.6865ZM215.746 17.9092L215.057 17.1842L215.057 17.1845L215.746 17.9092ZM212.255 19.96L211.953 19.0067L210.548 19.452L211.481 20.5928L212.255 19.96ZM225.365 36V37H227.474L226.14 35.3671L225.365 36ZM217.016 36L216.236 36.6262L216.536 37H217.016V36ZM202.099 14.4912H201.099V15.4912H202.099V14.4912ZM211.107 13.4414L210.376 12.7597L210.375 12.7603L211.107 13.4414ZM211.107 8.09473L211.839 7.413L211.838 7.41241L211.107 8.09473ZM202.099 6.99609V5.99609H201.099V6.99609H202.099ZM204.564 19.4971H202.099V21.4971H204.564V19.4971ZM201.099 20.4971V36H203.099V20.4971H201.099ZM202.099 35H195.36V37H202.099V35ZM196.36 36V0.990234H194.36V36H196.36ZM195.36 1.99023H208.104V-0.00976562H195.36V1.99023ZM208.104 1.99023C211.107 1.99023 213.392 2.80499 215.071 4.34048L216.421 2.8646C214.291 0.917017 211.483 -0.00976562 208.104 -0.00976562V1.99023ZM215.057 4.32754C215.936 5.1627 216.616 6.13391 217.099 7.24789L218.934 6.45132C218.343 5.09135 217.509 3.89785 216.435 2.87754L215.057 4.32754ZM217.106 7.2625C217.598 8.34927 217.847 9.5101 217.847 10.7559H219.847C219.847 9.23469 219.541 7.79135 218.927 6.43672L217.106 7.2625ZM217.847 10.7559C217.847 12.0016 217.598 13.1724 217.104 14.2782L218.929 15.0949C219.542 13.7267 219.847 12.277 219.847 10.7559H217.847ZM217.101 14.2838C216.618 15.3819 215.939 16.3468 215.057 17.1842L216.435 18.6342C217.507 17.616 218.341 16.4326 218.932 15.0893L217.101 14.2838ZM215.057 17.1845C214.177 18.0216 213.146 18.6284 211.953 19.0067L212.557 20.9132C214.033 20.4452 215.33 19.6848 216.435 18.6339L215.057 17.1845ZM211.481 20.5928L224.591 36.6329L226.14 35.3671L213.029 19.3271L211.481 20.5928ZM225.365 35H217.016V37H225.365V35ZM217.795 35.3738L205.344 19.8709L203.785 21.1233L216.236 36.6262L217.795 35.3738ZM202.099 15.4912H207.714V13.4912H202.099V15.4912ZM207.714 15.4912C209.422 15.4912 210.904 15.1285 211.84 14.1225L210.375 12.7603C210.009 13.1541 209.229 13.4912 207.714 13.4912V15.4912ZM211.839 14.1231C212.691 13.2093 213.108 12.0816 213.108 10.8047H211.108C211.108 11.6111 210.859 12.2413 210.376 12.7597L211.839 14.1231ZM213.108 10.8047C213.108 9.49243 212.699 8.33591 211.839 7.413L210.376 8.77645C210.85 9.28583 211.108 9.93596 211.108 10.8047H213.108ZM211.838 7.41241C210.881 6.38605 209.414 5.99609 207.714 5.99609V7.99609C209.172 7.99609 209.967 8.33856 210.376 8.77705L211.838 7.41241ZM207.714 5.99609H202.099V7.99609H207.714V5.99609ZM201.099 6.99609V14.4912H203.099V6.99609H201.099ZM253.853 6.99609V7.99609H254.853V6.99609H253.853ZM239.595 6.99609V5.99609H238.595V6.99609H239.595ZM239.595 14.2471H238.595V15.2471H239.595V14.2471ZM250.361 14.2471H251.361V13.2471H250.361V14.2471ZM250.361 20.2529V21.2529H251.361V20.2529H250.361ZM239.595 20.2529V19.2529H238.595V20.2529H239.595ZM239.595 29.9941H238.595V30.9941H239.595V29.9941ZM254.341 29.9941H255.341V28.9941H254.341V29.9941ZM254.341 36V37H255.341V36H254.341ZM232.856 36H231.856V37H232.856V36ZM232.856 0.990234V-0.00976562H231.856V0.990234H232.856ZM253.853 0.990234H254.853V-0.00976562H253.853V0.990234ZM253.853 5.99609H239.595V7.99609H253.853V5.99609ZM238.595 6.99609V14.2471H240.595V6.99609H238.595ZM239.595 15.2471H250.361V13.2471H239.595V15.2471ZM249.361 14.2471V20.2529H251.361V14.2471H249.361ZM250.361 19.2529H239.595V21.2529H250.361V19.2529ZM238.595 20.2529V29.9941H240.595V20.2529H238.595ZM239.595 30.9941H254.341V28.9941H239.595V30.9941ZM253.341 29.9941V36H255.341V29.9941H253.341ZM254.341 35H232.856V37H254.341V35ZM233.856 36V0.990234H231.856V36H233.856ZM232.856 1.99023H253.853V-0.00976562H232.856V1.99023ZM252.853 0.990234V6.99609H254.853V0.990234H252.853ZM285.05 26.0879L284.271 25.4603L284.269 25.4632L285.05 26.0879ZM285.05 10.9023L284.269 11.527L284.271 11.53L285.05 10.9023ZM271.085 6.99609V5.99609H270.085V6.99609H271.085ZM271.085 29.9941H270.085V30.9941H271.085V29.9941ZM264.347 0.990234V-0.00976562H263.347V0.990234H264.347ZM287.394 4.31055L287.991 3.50837L287.986 3.50483L287.394 4.31055ZM292.496 10.4629L291.6 10.9078L291.602 10.9101L292.496 10.4629ZM292.496 26.5518L291.6 26.1069L292.496 26.5518ZM287.394 32.7041L287.985 33.5104L287.991 33.5063L287.394 32.7041ZM264.347 36H263.347V37H264.347V36ZM285.828 26.7155C287.679 24.4204 288.589 21.6618 288.589 18.4951H286.589C286.589 21.2529 285.806 23.5562 284.271 25.4603L285.828 26.7155ZM288.589 18.4951C288.589 15.3284 287.679 12.5699 285.828 10.2747L284.271 11.53C285.806 13.434 286.589 15.7373 286.589 18.4951H288.589ZM285.831 10.2776C283.525 7.39528 280.227 5.99609 276.09 5.99609V7.99609C279.733 7.99609 282.408 9.20107 284.269 11.527L285.831 10.2776ZM276.09 5.99609H271.085V7.99609H276.09V5.99609ZM270.085 6.99609V29.9941H272.085V6.99609H270.085ZM271.085 30.9941H276.09V28.9941H271.085V30.9941ZM276.09 30.9941C280.227 30.9941 283.525 29.595 285.831 26.7126L284.269 25.4632C282.408 27.7892 279.733 28.9941 276.09 28.9941V30.9941ZM264.347 1.99023H275.333V-0.00976562H264.347V1.99023ZM275.333 1.99023C280.222 1.99023 284.012 3.06612 286.801 5.11626L287.986 3.50483C284.753 1.12789 280.503 -0.00976562 275.333 -0.00976562V1.99023ZM286.796 5.11271C288.831 6.62718 290.431 8.55402 291.6 10.9078L293.392 10.018C292.087 7.39129 290.285 5.21657 287.991 3.50838L286.796 5.11271ZM291.602 10.9101C292.766 13.2394 293.352 15.7629 293.352 18.4951H295.352C295.352 15.4657 294.7 12.6343 293.391 10.0157L291.602 10.9101ZM293.352 18.4951C293.352 21.2274 292.766 23.76 291.6 26.1069L293.392 26.9966C294.7 24.3631 295.352 21.5246 295.352 18.4951H293.352ZM291.6 26.1069C290.431 28.4606 288.831 30.3875 286.796 31.9019L287.991 33.5063C290.285 31.7981 292.087 29.6234 293.392 26.9966L291.6 26.1069ZM286.802 31.8978C284.031 33.9311 280.241 35 275.333 35V37C280.516 37 284.767 35.8716 287.985 33.5104L286.802 31.8978ZM275.333 35H264.347V37H275.333V35ZM265.347 36V0.990234H263.347V36H265.347ZM0.848633 81.2393L0.128242 80.5457L-0.581695 81.2831L0.172053 81.9756L0.848633 81.2393ZM5.26758 76.6494L6.01035 75.9799L5.29166 75.1826L4.54719 75.9558L5.26758 76.6494ZM9.00293 79.457L8.55971 80.3535L8.57183 80.3593L9.00293 79.457ZM17.1816 79.2617L17.842 80.0127L17.8428 80.0119L17.1816 79.2617ZM17.9385 73.8418L18.7577 73.2683L17.9385 73.8418ZM15.9854 72.1816L15.5041 73.0583L15.5113 73.0621L15.9854 72.1816ZM13.4219 70.9854L13.0446 71.9114L13.052 71.9145L13.0594 71.9174L13.4219 70.9854ZM10.3457 69.7158L9.95648 70.637L9.96109 70.6389L10.3457 69.7158ZM7.41602 68.2998L6.91026 69.1626L6.91988 69.168L7.41602 68.2998ZM3.43652 56.1904L2.55135 55.7251L2.54912 55.7294L3.43652 56.1904ZM6.04883 53.0654L5.45073 52.264L5.44497 52.2683L6.04883 53.0654ZM9.73535 51.1855L10.0414 52.1376L10.0482 52.1353L9.73535 51.1855ZM24.1641 53.7979L24.9824 54.3727L25.5425 53.5752L24.7598 52.9947L24.1641 53.7979ZM20.6484 58.8027L19.9667 59.5343L20.8067 60.3171L21.4667 59.3775L20.6484 58.8027ZM17.9141 57.167L17.5403 58.0945L17.5486 58.0979L17.5569 58.101L17.9141 57.167ZM12.6895 56.7275L12.459 55.7545L12.6895 56.7275ZM10.9561 57.3867L11.4252 58.2699L11.4349 58.2646L10.9561 57.3867ZM9.88184 62.123L9.10991 62.7588L9.12009 62.7711L9.13067 62.7832L9.88184 62.123ZM11.7129 63.4658L11.2814 64.368L11.2889 64.3715L11.7129 63.4658ZM14.3008 64.6377L13.8975 65.5528L13.9068 65.5569L13.9162 65.5608L14.3008 64.6377ZM17.2793 65.834L16.9183 66.7666L17.2793 65.834ZM20.2334 67.3477L19.6919 68.1884L19.7002 68.1937L19.7085 68.1988L20.2334 67.3477ZM22.8213 69.3496L22.122 70.0645L22.1297 70.0719L22.8213 69.3496ZM24.6523 72.1572L23.7238 72.5286L23.7285 72.54L24.6523 72.1572ZM23.7002 81.4346L22.8732 80.8722L22.8694 80.878L23.7002 81.4346ZM19.3545 85.1943L19.7886 86.0952L19.792 86.0936L19.3545 85.1943ZM1.56902 81.9328L5.98797 77.343L4.54719 75.9558L0.128242 80.5457L1.56902 81.9328ZM4.52481 77.319C5.65437 78.5721 7.00233 79.5835 8.55975 80.3535L9.44611 78.5606C8.10639 77.8983 6.96412 77.038 6.01035 75.9799L4.52481 77.319ZM8.57183 80.3593C10.1644 81.1202 11.8167 81.5068 13.5195 81.5068V79.5068C12.13 79.5068 10.7712 79.1936 9.43403 78.5547L8.57183 80.3593ZM13.5195 81.5068C15.2111 81.5068 16.6818 81.0329 17.842 80.0127L16.5213 78.5107C15.7935 79.1507 14.8228 79.5068 13.5195 79.5068V81.5068ZM17.8428 80.0119C19.0165 78.9775 19.6221 77.6472 19.6221 76.0879H17.6221C17.6221 77.0676 17.2674 77.8532 16.5204 78.5115L17.8428 80.0119ZM19.6221 76.0879C19.6221 75.0505 19.3389 74.0986 18.7577 73.2683L17.1192 74.4153C17.4495 74.887 17.6221 75.4326 17.6221 76.0879H19.6221ZM18.7577 73.2683C18.1956 72.4654 17.4148 71.8156 16.4595 71.3012L15.5113 73.0621C16.2486 73.4592 16.7699 73.9162 17.1192 74.4153L18.7577 73.2683ZM16.4666 71.3051C15.5983 70.8284 14.7042 70.4111 13.7843 70.0533L13.0594 71.9174C13.8974 72.2432 14.7122 72.6235 15.5041 73.0582L16.4666 71.3051ZM13.7992 70.0593C12.9234 69.7024 11.9005 69.2803 10.7303 68.7927L9.96109 70.6389C11.1346 71.1279 12.1626 71.5521 13.0446 71.9114L13.7992 70.0593ZM10.7349 68.7947C9.60374 68.3167 8.66524 67.8619 7.91216 67.4316L6.91988 69.168C7.76184 69.6492 8.77647 70.1384 9.95649 70.637L10.7349 68.7947ZM7.92174 67.4371C4.87374 65.6504 3.45996 63.3005 3.45996 60.3408H1.45996C1.45996 64.1194 3.35022 67.0756 6.9103 69.1625L7.92174 67.4371ZM3.45996 60.3408C3.45996 58.9758 3.75213 57.7521 4.32393 56.6514L2.54912 55.7294C1.81884 57.1352 1.45996 58.6785 1.45996 60.3408H3.45996ZM4.32169 56.6557C4.9252 55.5076 5.70288 54.5821 6.65269 53.8625L5.44497 52.2683C4.24634 53.1764 3.28249 54.3342 2.55136 55.7252L4.32169 56.6557ZM6.64691 53.8669C7.64422 53.1226 8.77331 52.5452 10.0414 52.1376L9.42934 50.2335C7.96301 50.7048 6.63443 51.3807 5.45074 52.264L6.64691 53.8669ZM10.0482 52.1353C11.3301 51.7131 12.6487 51.502 14.0078 51.502V49.502C12.4373 49.502 10.9075 49.7466 9.42248 50.2358L10.0482 52.1353ZM14.0078 51.502C17.6094 51.502 20.7843 52.536 23.5683 54.601L24.7598 52.9947C21.6193 50.6652 18.0235 49.502 14.0078 49.502V51.502ZM23.3458 53.223L19.8301 58.2279L21.4667 59.3775L24.9824 54.3727L23.3458 53.223ZM21.3302 58.0711C20.5023 57.2997 19.4735 56.6927 18.2712 56.2329L17.5569 58.101C18.5681 58.4877 19.3623 58.9711 19.9667 59.5343L21.3302 58.0711ZM18.2878 56.2395C17.086 55.7552 15.8609 55.5078 14.6182 55.5078V57.5078C15.589 57.5078 16.5611 57.6999 17.5403 58.0945L18.2878 56.2395ZM14.6182 55.5078C13.8771 55.5078 13.1567 55.5892 12.459 55.7545L12.9199 57.7006C13.4592 57.5729 14.0246 57.5078 14.6182 57.5078V55.5078ZM12.459 55.7545C11.7572 55.9207 11.0955 56.1716 10.4772 56.5088L11.4349 58.2646C11.8908 58.0159 12.3847 57.8274 12.9199 57.7006L12.459 55.7545ZM10.4869 56.5036C9.81244 56.8619 9.26257 57.3711 8.84623 58.0165L10.5268 59.1007C10.7615 58.7369 11.058 58.4649 11.4252 58.2698L10.4869 56.5036ZM8.84623 58.0165C8.40766 58.6962 8.19824 59.4655 8.19824 60.292H10.1982C10.1982 59.8164 10.3143 59.4301 10.5268 59.1007L8.84623 58.0165ZM8.19824 60.292C8.19824 61.2091 8.51851 62.0406 9.10991 62.7588L10.6538 61.4873C10.3337 61.0987 10.1982 60.7095 10.1982 60.292H8.19824ZM9.13067 62.7832C9.70498 63.4367 10.4303 63.9609 11.2814 64.368L12.1443 62.5637C11.4981 62.2546 11.0027 61.8836 10.633 61.4629L9.13067 62.7832ZM11.2889 64.3715C12.0622 64.7335 12.9319 65.1272 13.8975 65.5528L14.704 63.7226C13.7491 63.3018 12.8935 62.9143 12.1368 62.5601L11.2889 64.3715ZM13.9162 65.5608C14.9007 65.971 15.9015 66.3729 16.9183 66.7666L17.6403 64.9014C16.6389 64.5138 15.6539 64.1182 14.6854 63.7146L13.9162 65.5608ZM16.9183 66.7666C17.8609 67.1314 18.7854 67.6045 19.6919 68.1884L20.7749 66.5069C19.7608 65.8538 18.7159 65.3178 17.6403 64.9014L16.9183 66.7666ZM19.7085 68.1988C20.628 68.7658 21.431 69.3884 22.122 70.0644L23.5206 68.6348C22.7142 67.8459 21.7919 67.1339 20.7583 66.4965L19.7085 68.1988ZM22.1297 70.0719C22.7765 70.6912 23.3128 71.5009 23.7239 72.5286L25.5808 71.7858C25.0804 70.5349 24.3961 69.4729 23.5129 68.6273L22.1297 70.0719ZM23.7285 72.54C24.1433 73.5413 24.3604 74.6863 24.3604 75.9902H26.3604C26.3604 74.4622 26.1054 73.0518 25.5762 71.7745L23.7285 72.54ZM24.3604 75.9902C24.3604 77.7953 23.8652 79.4135 22.8733 80.8723L24.5271 81.9969C25.7487 80.2004 26.3604 78.1891 26.3604 75.9902H24.3604ZM22.8694 80.878C21.88 82.3547 20.5688 83.4915 18.917 84.2951L19.792 86.0936C21.7535 85.1393 23.3394 83.7697 24.531 81.9912L22.8694 80.878ZM18.9204 84.2934C17.2731 85.0872 15.4775 85.4883 13.5195 85.4883V87.4883C15.7607 87.4883 17.8552 87.0268 19.7886 86.0952L18.9204 84.2934ZM13.5195 85.4883C9.16094 85.4883 5.1722 83.8538 1.52521 80.5029L0.172053 81.9756C4.14225 85.6235 8.60078 87.4883 13.5195 87.4883V85.4883ZM39.8584 50.9902L40.7125 50.4702L40.4203 49.9902H39.8584V50.9902ZM52.627 71.9619L51.7728 72.482L52.6278 73.8862L53.4815 72.4812L52.627 71.9619ZM65.3711 50.9902V49.9902H64.8086L64.5165 50.4709L65.3711 50.9902ZM70.1074 50.9902H71.1074V49.9902H70.1074V50.9902ZM70.1074 86V87H71.1074V86H70.1074ZM63.3691 86H62.3691V87H63.3691V86ZM63.3691 66.4932H64.3691V62.9386L62.5158 65.9718L63.3691 66.4932ZM54.9707 80.2383V81.2383H55.5316L55.824 80.7597L54.9707 80.2383ZM50.2588 80.2383L49.4055 80.7597L49.6979 81.2383H50.2588V80.2383ZM41.8604 66.4932L42.7137 65.9718L40.8604 62.9386V66.4932H41.8604ZM41.8604 86V87H42.8604V86H41.8604ZM35.1221 86H34.1221V87H35.1221V86ZM35.1221 50.9902V49.9902H34.1221V50.9902H35.1221ZM39.0043 51.5103L51.7728 72.482L53.4811 71.4419L40.7125 50.4702L39.0043 51.5103ZM53.4815 72.4812L66.2257 51.5095L64.5165 50.4709L51.7724 71.4426L53.4815 72.4812ZM65.3711 51.9902H70.1074V49.9902H65.3711V51.9902ZM69.1074 50.9902V86H71.1074V50.9902H69.1074ZM70.1074 85H63.3691V87H70.1074V85ZM64.3691 86V66.4932H62.3691V86H64.3691ZM62.5158 65.9718L54.1174 79.7169L55.824 80.7597L64.2225 67.0145L62.5158 65.9718ZM54.9707 79.2383H50.2588V81.2383H54.9707V79.2383ZM51.1121 79.7169L42.7137 65.9718L41.007 67.0145L49.4055 80.7597L51.1121 79.7169ZM40.8604 66.4932V86H42.8604V66.4932H40.8604ZM41.8604 85H35.1221V87H41.8604V85ZM36.1221 86V50.9902H34.1221V86H36.1221ZM35.1221 51.9902H39.8584V49.9902H35.1221V51.9902ZM87.877 62.4893L88.7552 62.9676L88.7569 62.9643L87.877 62.4893ZM87.877 74.5254L86.997 75.0004L86.9988 75.0037L87.877 74.5254ZM92.0029 78.8955L91.4757 79.7453L91.485 79.7509L92.0029 78.8955ZM103.746 78.8955L104.268 79.7488L104.27 79.7474L103.746 78.8955ZM107.896 74.5254L108.775 75.0037L108.776 75.0004L107.896 74.5254ZM107.896 62.4893L107.017 62.9643L107.018 62.9676L107.896 62.4893ZM103.746 58.1191L103.225 58.9724L103.228 58.9745L103.746 58.1191ZM92.0029 58.1191L91.485 57.2637L91.4815 57.2659L92.0029 58.1191ZM80.9678 75.502L80.0417 75.8793L80.0441 75.8851L80.9678 75.502ZM80.9678 61.4883L80.0441 61.1051L80.0417 61.111L80.9678 61.4883ZM84.7031 55.7754L85.4174 56.4753L85.4209 56.4716L84.7031 55.7754ZM90.4893 51.918L90.1088 50.9932L90.1065 50.9941L90.4893 51.918ZM105.26 51.918L104.877 52.8418L104.879 52.8428L105.26 51.918ZM111.07 55.7754L110.353 56.4717L110.356 56.4752L111.07 55.7754ZM111.07 81.2393L111.785 81.9391L111.788 81.9355L111.07 81.2393ZM105.26 85.0723L104.879 84.1474L104.877 84.1484L105.26 85.0723ZM90.4893 85.0723L90.1065 85.9961L90.1088 85.9971L90.4893 85.0723ZM84.7031 81.2393L83.9853 81.9355L83.9888 81.9391L84.7031 81.2393ZM86.9988 62.011C85.9219 63.9881 85.3877 66.1558 85.3877 68.4951H87.3877C87.3877 66.4725 87.8463 64.6362 88.7551 62.9676L86.9988 62.011ZM85.3877 68.4951C85.3877 70.8345 85.9219 73.0088 86.997 75.0004L88.7569 74.0504C87.8463 72.3635 87.3877 70.5177 87.3877 68.4951H85.3877ZM86.9988 75.0037C88.0742 76.9782 89.5702 78.5631 91.4758 79.7453L92.5301 78.0457C90.92 77.0469 89.6654 75.7184 88.7551 74.0471L86.9988 75.0037ZM91.485 79.7509C93.4211 80.9232 95.5625 81.5068 97.8867 81.5068V79.5068C95.914 79.5068 94.133 79.0162 92.5209 78.0401L91.485 79.7509ZM97.8867 81.5068C100.211 81.5068 102.346 80.9232 104.268 79.7488L103.225 78.0422C101.631 79.0163 99.8594 79.5068 97.8867 79.5068V81.5068ZM104.27 79.7474C106.192 78.5658 107.698 76.9805 108.775 75.0037L107.018 74.0471C106.109 75.7161 104.848 77.0442 103.222 78.0436L104.27 79.7474ZM108.776 75.0004C109.852 73.0088 110.386 70.8345 110.386 68.4951H108.386C108.386 70.5177 107.927 72.3635 107.017 74.0504L108.776 75.0004ZM110.386 68.4951C110.386 66.1558 109.852 63.9881 108.775 62.011L107.018 62.9676C107.927 64.6362 108.386 66.4725 108.386 68.4951H110.386ZM108.776 62.0142C107.7 60.0195 106.192 58.431 104.264 57.2637L103.228 58.9745C104.849 59.9557 106.108 61.2806 107.017 62.9643L108.776 62.0142ZM104.268 57.2659C102.346 56.0915 100.211 55.5078 97.8867 55.5078V57.5078C99.8594 57.5078 101.631 57.9984 103.225 58.9724L104.268 57.2659ZM97.8867 55.5078C95.5625 55.5078 93.4211 56.0914 91.485 57.2637L92.5209 58.9745C94.133 57.9984 95.914 57.5078 97.8867 57.5078V55.5078ZM91.4815 57.2659C89.5705 58.4337 88.0725 60.0219 86.997 62.0142L88.7569 62.9643C89.6671 61.2783 90.9197 59.9531 92.5244 58.9724L91.4815 57.2659ZM81.8939 75.1247C81.0496 73.0523 80.625 70.8453 80.625 68.4951H78.625C78.625 71.0928 79.0956 73.5571 80.0417 75.8792L81.8939 75.1247ZM80.625 68.4951C80.625 66.1449 81.0496 63.9379 81.8939 61.8656L80.0417 61.111C79.0956 63.4332 78.625 65.8974 78.625 68.4951H80.625ZM81.8915 61.8714C82.7567 59.7856 83.9328 57.9904 85.4174 56.4752L83.9888 55.0755C82.3159 56.783 81.0018 58.7964 80.0441 61.1051L81.8915 61.8714ZM85.4209 56.4716C86.8966 54.9503 88.7082 53.7382 90.872 52.8418L90.1065 50.9941C87.713 51.9857 85.6672 53.3453 83.9853 55.0791L85.4209 56.4716ZM90.8697 52.8428C93.0365 51.9515 95.3722 51.502 97.8867 51.502V49.502C95.1278 49.502 92.5319 49.9964 90.1088 50.9932L90.8697 52.8428ZM97.8867 51.502C100.401 51.502 102.728 51.9515 104.877 52.8418L105.643 50.9941C103.234 49.9964 100.646 49.502 97.8867 49.502V51.502ZM104.879 52.8428C107.059 53.7395 108.878 54.9515 110.353 56.4716L111.788 55.0791C110.105 53.344 108.05 51.9844 105.64 50.9932L104.879 52.8428ZM110.356 56.4752C111.839 57.9891 113.006 59.7822 113.855 61.8656L115.707 61.111C114.766 58.7998 113.459 56.7844 111.785 55.0755L110.356 56.4752ZM113.855 61.8656C114.699 63.9379 115.124 66.1449 115.124 68.4951H117.124C117.124 65.8974 116.653 63.4332 115.707 61.111L113.855 61.8656ZM115.124 68.4951C115.124 70.8453 114.699 73.0523 113.855 75.1247L115.707 75.8792C116.653 73.5571 117.124 71.0928 117.124 68.4951H115.124ZM113.855 75.1247C113.006 77.2088 111.838 79.0116 110.353 80.543L111.788 81.9355C113.46 80.2117 114.766 78.1896 115.707 75.8792L113.855 75.1247ZM110.356 80.5394C108.881 82.0446 107.061 83.2498 104.879 84.1475L105.64 85.9971C108.048 85.0067 110.102 83.6566 111.785 81.9391L110.356 80.5394ZM104.877 84.1484C102.728 85.0388 100.401 85.4883 97.8867 85.4883V87.4883C100.646 87.4883 103.234 86.9938 105.643 85.9961L104.877 84.1484ZM97.8867 85.4883C95.3722 85.4883 93.0365 85.0388 90.8697 84.1475L90.1088 85.9971C92.5319 86.9938 95.1278 87.4883 97.8867 87.4883V85.4883ZM90.872 84.1484C88.7061 83.2511 86.8934 82.0458 85.4174 80.5394L83.9888 81.9391C85.6704 83.6553 87.7151 85.0054 90.1065 85.9961L90.872 84.1484ZM85.4209 80.543C83.9342 79.0103 82.757 77.2055 81.8915 75.1188L80.0441 75.8851C81.0014 78.193 82.3145 80.2131 83.9853 81.9355L85.4209 80.543ZM133.137 62.4893L134.015 62.9676L134.017 62.9643L133.137 62.4893ZM133.137 74.5254L132.257 75.0004L132.259 75.0037L133.137 74.5254ZM137.263 78.8955L136.736 79.7453L136.745 79.7509L137.263 78.8955ZM149.006 78.8955L149.527 79.7488L149.53 79.7474L149.006 78.8955ZM153.156 74.5254L154.034 75.0037L154.036 75.0004L153.156 74.5254ZM153.156 62.4893L152.276 62.9643L152.278 62.9676L153.156 62.4893ZM149.006 58.1191L148.484 58.9724L148.488 58.9745L149.006 58.1191ZM137.263 58.1191L136.745 57.2637L136.741 57.2659L137.263 58.1191ZM126.228 75.502L125.301 75.8793L125.304 75.8851L126.228 75.502ZM126.228 61.4883L125.304 61.1051L125.301 61.111L126.228 61.4883ZM129.963 55.7754L130.677 56.4753L130.681 56.4716L129.963 55.7754ZM135.749 51.918L135.369 50.9932L135.366 50.9941L135.749 51.918ZM150.52 51.918L150.137 52.8418L150.139 52.8428L150.52 51.918ZM156.33 55.7754L155.612 56.4717L155.616 56.4752L156.33 55.7754ZM156.33 81.2393L157.044 81.9391L157.048 81.9355L156.33 81.2393ZM150.52 85.0723L150.139 84.1474L150.137 84.1484L150.52 85.0723ZM135.749 85.0723L135.366 85.9961L135.369 85.9971L135.749 85.0723ZM129.963 81.2393L129.245 81.9355L129.249 81.9391L129.963 81.2393ZM132.259 62.011C131.182 63.9881 130.647 66.1558 130.647 68.4951H132.647C132.647 66.4725 133.106 64.6362 134.015 62.9676L132.259 62.011ZM130.647 68.4951C130.647 70.8345 131.182 73.0088 132.257 75.0004L134.017 74.0504C133.106 72.3635 132.647 70.5177 132.647 68.4951H130.647ZM132.259 75.0037C133.334 76.9782 134.83 78.5631 136.736 79.7453L137.79 78.0457C136.18 77.0469 134.925 75.7184 134.015 74.0471L132.259 75.0037ZM136.745 79.7509C138.681 80.9232 140.822 81.5068 143.146 81.5068V79.5068C141.174 79.5068 139.393 79.0162 137.781 78.0401L136.745 79.7509ZM143.146 81.5068C145.471 81.5068 147.606 80.9232 149.527 79.7488L148.484 78.0422C146.891 79.0163 145.119 79.5068 143.146 79.5068V81.5068ZM149.53 79.7474C151.452 78.5658 152.958 76.9805 154.034 75.0037L152.278 74.0471C151.369 75.7161 150.108 77.0442 148.482 78.0436L149.53 79.7474ZM154.036 75.0004C155.111 73.0088 155.646 70.8345 155.646 68.4951H153.646C153.646 70.5177 153.187 72.3635 152.276 74.0504L154.036 75.0004ZM155.646 68.4951C155.646 66.1558 155.111 63.9881 154.034 62.011L152.278 62.9676C153.187 64.6362 153.646 66.4725 153.646 68.4951H155.646ZM154.036 62.0142C152.959 60.0195 151.452 58.431 149.524 57.2637L148.488 58.9745C150.108 59.9557 151.367 61.2806 152.276 62.9643L154.036 62.0142ZM149.527 57.2659C147.606 56.0915 145.471 55.5078 143.146 55.5078V57.5078C145.119 57.5078 146.891 57.9984 148.484 58.9724L149.527 57.2659ZM143.146 55.5078C140.822 55.5078 138.681 56.0914 136.745 57.2637L137.781 58.9745C139.393 57.9984 141.174 57.5078 143.146 57.5078V55.5078ZM136.741 57.2659C134.83 58.4337 133.332 60.0219 132.257 62.0142L134.017 62.9643C134.927 61.2783 136.179 59.9531 137.784 58.9724L136.741 57.2659ZM127.154 75.1247C126.309 73.0523 125.885 70.8453 125.885 68.4951H123.885C123.885 71.0928 124.355 73.5571 125.301 75.8792L127.154 75.1247ZM125.885 68.4951C125.885 66.1449 126.309 63.9379 127.154 61.8656L125.301 61.111C124.355 63.4332 123.885 65.8974 123.885 68.4951H125.885ZM127.151 61.8714C128.016 59.7856 129.193 57.9904 130.677 56.4752L129.249 55.0755C127.576 56.783 126.262 58.7964 125.304 61.1051L127.151 61.8714ZM130.681 56.4716C132.156 54.9503 133.968 53.7382 136.132 52.8418L135.366 50.9941C132.973 51.9857 130.927 53.3453 129.245 55.0791L130.681 56.4716ZM136.129 52.8428C138.296 51.9515 140.632 51.502 143.146 51.502V49.502C140.388 49.502 137.792 49.9964 135.369 50.9932L136.129 52.8428ZM143.146 51.502C145.661 51.502 147.988 51.9515 150.137 52.8418L150.902 50.9941C148.494 49.9964 145.905 49.502 143.146 49.502V51.502ZM150.139 52.8428C152.319 53.7395 154.138 54.9515 155.612 56.4716L157.048 55.0791C155.365 53.344 153.31 51.9844 150.9 50.9932L150.139 52.8428ZM155.616 56.4752C157.099 57.9891 158.266 59.7822 159.115 61.8656L160.967 61.111C160.026 58.7998 158.719 56.7844 157.044 55.0755L155.616 56.4752ZM159.115 61.8656C159.959 63.9379 160.384 66.1449 160.384 68.4951H162.384C162.384 65.8974 161.913 63.4332 160.967 61.111L159.115 61.8656ZM160.384 68.4951C160.384 70.8453 159.959 73.0523 159.115 75.1247L160.967 75.8792C161.913 73.5571 162.384 71.0928 162.384 68.4951H160.384ZM159.115 75.1247C158.266 77.2088 157.098 79.0116 155.612 80.543L157.048 81.9355C158.72 80.2117 160.026 78.1896 160.967 75.8792L159.115 75.1247ZM155.616 80.5394C154.141 82.0446 152.321 83.2498 150.139 84.1475L150.9 85.9971C153.308 85.0067 155.362 83.6566 157.044 81.9391L155.616 80.5394ZM150.137 84.1484C147.988 85.0388 145.661 85.4883 143.146 85.4883V87.4883C145.905 87.4883 148.494 86.9938 150.902 85.9961L150.137 84.1484ZM143.146 85.4883C140.632 85.4883 138.296 85.0388 136.129 84.1475L135.369 85.9971C137.792 86.9938 140.388 87.4883 143.146 87.4883V85.4883ZM136.132 84.1484C133.966 83.2511 132.153 82.0458 130.677 80.5394L129.249 81.9391C130.93 83.6553 132.975 85.0054 135.366 85.9961L136.132 84.1484ZM130.681 80.543C129.194 79.0103 128.017 77.2055 127.151 75.1188L125.304 75.8851C126.261 78.193 127.574 80.2131 129.245 81.9355L130.681 80.543ZM167.361 50.9902V49.9902H166.361V50.9902H167.361ZM192.605 50.9902H193.605V49.9902H192.605V50.9902ZM192.605 56.9961V57.9961H193.605V56.9961H192.605ZM183.377 56.9961V55.9961H182.377V56.9961H183.377ZM183.377 86V87H184.377V86H183.377ZM176.614 86H175.614V87H176.614V86ZM176.614 56.9961H177.614V55.9961H176.614V56.9961ZM167.361 56.9961H166.361V57.9961H167.361V56.9961ZM167.361 51.9902H192.605V49.9902H167.361V51.9902ZM191.605 50.9902V56.9961H193.605V50.9902H191.605ZM192.605 55.9961H183.377V57.9961H192.605V55.9961ZM182.377 56.9961V86H184.377V56.9961H182.377ZM183.377 85H176.614V87H183.377V85ZM177.614 86V56.9961H175.614V86H177.614ZM176.614 55.9961H167.361V57.9961H176.614V55.9961ZM168.361 56.9961V50.9902H166.361V56.9961H168.361ZM226.098 86H225.098V87H226.098V86ZM226.098 70.2529H227.098V69.2529H226.098V70.2529ZM208.593 70.2529V69.2529H207.593V70.2529H208.593ZM208.593 86V87H209.593V86H208.593ZM201.854 86H200.854V87H201.854V86ZM201.854 50.9902V49.9902H200.854V50.9902H201.854ZM208.593 50.9902H209.593V49.9902H208.593V50.9902ZM208.593 64.2471H207.593V65.2471H208.593V64.2471ZM226.098 64.2471V65.2471H227.098V64.2471H226.098ZM226.098 50.9902V49.9902H225.098V50.9902H226.098ZM232.86 50.9902H233.86V49.9902H232.86V50.9902ZM232.86 86V87H233.86V86H232.86ZM227.098 86V70.2529H225.098V86H227.098ZM226.098 69.2529H208.593V71.2529H226.098V69.2529ZM207.593 70.2529V86H209.593V70.2529H207.593ZM208.593 85H201.854V87H208.593V85ZM202.854 86V50.9902H200.854V86H202.854ZM201.854 51.9902H208.593V49.9902H201.854V51.9902ZM207.593 50.9902V64.2471H209.593V50.9902H207.593ZM208.593 65.2471H226.098V63.2471H208.593V65.2471ZM227.098 64.2471V50.9902H225.098V64.2471H227.098ZM226.098 51.9902H232.86V49.9902H226.098V51.9902ZM231.86 50.9902V86H233.86V50.9902H231.86ZM232.86 85H226.098V87H232.86V85ZM244.868 86H243.868V87H244.868V86ZM244.868 50.9902V49.9902H243.868V50.9902H244.868ZM251.606 50.9902H252.606V49.9902H251.606V50.9902ZM251.606 86V87H252.606V86H251.606ZM245.868 86V50.9902H243.868V86H245.868ZM244.868 51.9902H251.606V49.9902H244.868V51.9902ZM250.606 50.9902V86H252.606V50.9902H250.606ZM251.606 85H244.868V87H251.606V85ZM284.61 56.9961V57.9961H285.61V56.9961H284.61ZM270.353 56.9961V55.9961H269.353V56.9961H270.353ZM270.353 64.2471H269.353V65.2471H270.353V64.2471ZM281.119 64.2471H282.119V63.2471H281.119V64.2471ZM281.119 70.2529V71.2529H282.119V70.2529H281.119ZM270.353 70.2529V69.2529H269.353V70.2529H270.353ZM270.353 79.9941H269.353V80.9941H270.353V79.9941ZM285.099 79.9941H286.099V78.9941H285.099V79.9941ZM285.099 86V87H286.099V86H285.099ZM263.614 86H262.614V87H263.614V86ZM263.614 50.9902V49.9902H262.614V50.9902H263.614ZM284.61 50.9902H285.61V49.9902H284.61V50.9902ZM284.61 55.9961H270.353V57.9961H284.61V55.9961ZM269.353 56.9961V64.2471H271.353V56.9961H269.353ZM270.353 65.2471H281.119V63.2471H270.353V65.2471ZM280.119 64.2471V70.2529H282.119V64.2471H280.119ZM281.119 69.2529H270.353V71.2529H281.119V69.2529ZM269.353 70.2529V79.9941H271.353V70.2529H269.353ZM270.353 80.9941H285.099V78.9941H270.353V80.9941ZM284.099 79.9941V86H286.099V79.9941H284.099ZM285.099 85H263.614V87H285.099V85ZM264.614 86V50.9902H262.614V86H264.614ZM263.614 51.9902H284.61V49.9902H263.614V51.9902ZM283.61 50.9902V56.9961H285.61V50.9902H283.61ZM292.37 81.2393L291.65 80.5457L290.94 81.2831L291.694 81.9756L292.37 81.2393ZM296.789 76.6494L297.532 75.9799L296.813 75.1826L296.069 75.9558L296.789 76.6494ZM300.524 79.457L300.081 80.3535L300.093 80.3593L300.524 79.457ZM308.703 79.2617L309.363 80.0127L309.364 80.0119L308.703 79.2617ZM309.46 73.8418L310.279 73.2683L309.46 73.8418ZM307.507 72.1816L307.026 73.0583L307.033 73.0621L307.507 72.1816ZM304.943 70.9854L304.566 71.9114L304.573 71.9145L304.581 71.9174L304.943 70.9854ZM301.867 69.7158L301.478 70.637L301.483 70.6389L301.867 69.7158ZM298.938 68.2998L298.432 69.1626L298.441 69.168L298.938 68.2998ZM294.958 56.1904L294.073 55.7251L294.071 55.7294L294.958 56.1904ZM297.57 53.0654L296.972 52.264L296.966 52.2683L297.57 53.0654ZM301.257 51.1855L301.563 52.1376L301.57 52.1353L301.257 51.1855ZM315.686 53.7979L316.504 54.3727L317.064 53.5752L316.281 52.9947L315.686 53.7979ZM312.17 58.8027L311.488 59.5343L312.328 60.3171L312.988 59.3775L312.17 58.8027ZM309.436 57.167L309.062 58.0945L309.07 58.0979L309.078 58.101L309.436 57.167ZM304.211 56.7275L303.98 55.7545L304.211 56.7275ZM302.478 57.3867L302.947 58.2699L302.956 58.2646L302.478 57.3867ZM301.403 62.123L300.631 62.7588L300.642 62.7711L300.652 62.7832L301.403 62.123ZM303.234 63.4658L302.803 64.368L302.81 64.3715L303.234 63.4658ZM305.822 64.6377L305.419 65.5528L305.428 65.5569L305.438 65.5608L305.822 64.6377ZM308.801 65.834L308.44 66.7666L308.801 65.834ZM311.755 67.3477L311.213 68.1884L311.222 68.1937L311.23 68.1988L311.755 67.3477ZM314.343 69.3496L313.643 70.0645L313.651 70.0719L314.343 69.3496ZM316.174 72.1572L315.245 72.5286L315.25 72.54L316.174 72.1572ZM315.222 81.4346L314.395 80.8722L314.391 80.878L315.222 81.4346ZM310.876 85.1943L311.31 86.0952L311.313 86.0936L310.876 85.1943ZM293.091 81.9328L297.509 77.343L296.069 75.9558L291.65 80.5457L293.091 81.9328ZM296.046 77.319C297.176 78.5721 298.524 79.5835 300.081 80.3535L300.968 78.5606C299.628 77.8983 298.486 77.038 297.532 75.9799L296.046 77.319ZM300.093 80.3593C301.686 81.1202 303.338 81.5068 305.041 81.5068V79.5068C303.651 79.5068 302.293 79.1936 300.956 78.5547L300.093 80.3593ZM305.041 81.5068C306.733 81.5068 308.203 81.0329 309.363 80.0127L308.043 78.5107C307.315 79.1507 306.344 79.5068 305.041 79.5068V81.5068ZM309.364 80.0119C310.538 78.9775 311.144 77.6472 311.144 76.0879H309.144C309.144 77.0676 308.789 77.8532 308.042 78.5115L309.364 80.0119ZM311.144 76.0879C311.144 75.0505 310.86 74.0986 310.279 73.2683L308.641 74.4153C308.971 74.887 309.144 75.4326 309.144 76.0879H311.144ZM310.279 73.2683C309.717 72.4654 308.936 71.8156 307.981 71.3012L307.033 73.0621C307.77 73.4592 308.291 73.9162 308.641 74.4153L310.279 73.2683ZM307.988 71.3051C307.12 70.8284 306.226 70.4111 305.306 70.0533L304.581 71.9174C305.419 72.2432 306.234 72.6235 307.026 73.0582L307.988 71.3051ZM305.321 70.0593C304.445 69.7024 303.422 69.2803 302.252 68.7927L301.483 70.6389C302.656 71.1279 303.684 71.5521 304.566 71.9114L305.321 70.0593ZM302.256 68.7947C301.125 68.3167 300.187 67.8619 299.434 67.4316L298.441 69.168C299.283 69.6492 300.298 70.1384 301.478 70.637L302.256 68.7947ZM299.443 67.4371C296.395 65.6504 294.981 63.3005 294.981 60.3408H292.981C292.981 64.1194 294.872 67.0756 298.432 69.1625L299.443 67.4371ZM294.981 60.3408C294.981 58.9758 295.274 57.7521 295.845 56.6514L294.071 55.7294C293.34 57.1352 292.981 58.6785 292.981 60.3408H294.981ZM295.843 56.6557C296.447 55.5076 297.224 54.5821 298.174 53.8625L296.966 52.2683C295.768 53.1764 294.804 54.3342 294.073 55.7252L295.843 56.6557ZM298.168 53.8669C299.166 53.1226 300.295 52.5452 301.563 52.1376L300.951 50.2335C299.484 50.7048 298.156 51.3807 296.972 52.264L298.168 53.8669ZM301.57 52.1353C302.852 51.7131 304.17 51.502 305.529 51.502V49.502C303.959 49.502 302.429 49.7466 300.944 50.2358L301.57 52.1353ZM305.529 51.502C309.131 51.502 312.306 52.536 315.09 54.601L316.281 52.9947C313.141 50.6652 309.545 49.502 305.529 49.502V51.502ZM314.867 53.223L311.352 58.2279L312.988 59.3775L316.504 54.3727L314.867 53.223ZM312.852 58.0711C312.024 57.2997 310.995 56.6927 309.793 56.2329L309.078 58.101C310.09 58.4877 310.884 58.9711 311.488 59.5343L312.852 58.0711ZM309.809 56.2395C308.608 55.7552 307.382 55.5078 306.14 55.5078V57.5078C307.111 57.5078 308.083 57.6999 309.062 58.0945L309.809 56.2395ZM306.14 55.5078C305.399 55.5078 304.678 55.5892 303.98 55.7545L304.441 57.7006C304.981 57.5729 305.546 57.5078 306.14 57.5078V55.5078ZM303.98 55.7545C303.279 55.9207 302.617 56.1716 301.999 56.5088L302.956 58.2646C303.412 58.0159 303.906 57.8274 304.441 57.7006L303.98 55.7545ZM302.008 56.5036C301.334 56.8619 300.784 57.3711 300.368 58.0165L302.048 59.1007C302.283 58.7369 302.579 58.4649 302.947 58.2698L302.008 56.5036ZM300.368 58.0165C299.929 58.6962 299.72 59.4655 299.72 60.292H301.72C301.72 59.8164 301.836 59.4301 302.048 59.1007L300.368 58.0165ZM299.72 60.292C299.72 61.2091 300.04 62.0406 300.631 62.7588L302.175 61.4873C301.855 61.0987 301.72 60.7095 301.72 60.292H299.72ZM300.652 62.7832C301.226 63.4367 301.952 63.9609 302.803 64.368L303.666 62.5637C303.02 62.2546 302.524 61.8836 302.154 61.4629L300.652 62.7832ZM302.81 64.3715C303.584 64.7335 304.453 65.1272 305.419 65.5528L306.226 63.7226C305.271 63.3018 304.415 62.9143 303.658 62.5601L302.81 64.3715ZM305.438 65.5608C306.422 65.971 307.423 66.3729 308.44 66.7666L309.162 64.9014C308.16 64.5138 307.175 64.1182 306.207 63.7146L305.438 65.5608ZM308.44 66.7666C309.382 67.1314 310.307 67.6045 311.213 68.1884L312.296 66.5069C311.282 65.8538 310.237 65.3178 309.162 64.9014L308.44 66.7666ZM311.23 68.1988C312.149 68.7658 312.952 69.3884 313.643 70.0644L315.042 68.6348C314.236 67.8459 313.313 67.1339 312.28 66.4965L311.23 68.1988ZM313.651 70.0719C314.298 70.6912 314.834 71.5009 315.245 72.5286L317.102 71.7858C316.602 70.5349 315.918 69.4729 315.034 68.6273L313.651 70.0719ZM315.25 72.54C315.665 73.5413 315.882 74.6863 315.882 75.9902H317.882C317.882 74.4622 317.627 73.0518 317.098 71.7745L315.25 72.54ZM315.882 75.9902C315.882 77.7953 315.387 79.4135 314.395 80.8723L316.049 81.9969C317.27 80.2004 317.882 78.1891 317.882 75.9902H315.882ZM314.391 80.878C313.401 82.3547 312.09 83.4915 310.439 84.2951L311.313 86.0936C313.275 85.1393 314.861 83.7697 316.052 81.9912L314.391 80.878ZM310.442 84.2934C308.795 85.0872 306.999 85.4883 305.041 85.4883V87.4883C307.282 87.4883 309.377 87.0268 311.31 86.0952L310.442 84.2934ZM305.041 85.4883C300.682 85.4883 296.694 83.8538 293.047 80.5029L291.694 81.9756C295.664 85.6235 300.122 87.4883 305.041 87.4883V85.4883Z" fill="#FF8B6A"/>
</svg>
