<svg width="93" height="46" viewBox="0 0 93 46" fill="none" xmlns="http://www.w3.org/2000/svg">
<path d="M7.41797 32.5977V38.3574C7.41797 39.0254 7.33008 39.5215 7.1543 39.8457C6.93945 40.2441 6.62695 40.5566 6.2168 40.7832C5.80664 41.0059 5.35547 41.1172 4.86328 41.1172C4.32031 41.1172 3.83984 40.9863 3.42188 40.7246C3.00391 40.459 2.69727 40.0996 2.50195 39.6465L3.89062 38.9492C3.97266 39.1523 4.09375 39.3262 4.25391 39.4707C4.41797 39.6113 4.625 39.6816 4.875 39.6816C5.1875 39.6816 5.43164 39.5684 5.60742 39.3418C5.73633 39.166 5.80078 38.8984 5.80078 38.5391V32.5977H7.41797ZM10.6582 35.3574C10.4199 35.7949 10.3008 36.2754 10.3008 36.7988C10.3008 37.3223 10.4199 37.8047 10.6582 38.2461C10.8965 38.6836 11.2266 39.0332 11.6484 39.2949C12.0742 39.5527 12.5449 39.6816 13.0605 39.6816C13.5762 39.6816 14.0449 39.5527 14.4668 39.2949C14.8926 39.0332 15.2246 38.6836 15.4629 38.2461C15.7012 37.8047 15.8203 37.3223 15.8203 36.7988C15.8203 36.2754 15.7012 35.7949 15.4629 35.3574C15.2246 34.916 14.8926 34.5664 14.4668 34.3086C14.0449 34.0508 13.5762 33.9219 13.0605 33.9219C12.5449 33.9219 12.0742 34.0508 11.6484 34.3086C11.2266 34.5664 10.8965 34.916 10.6582 35.3574ZM9 38.4805C8.78516 37.9531 8.67773 37.3926 8.67773 36.7988C8.67773 36.2051 8.78516 35.6445 9 35.1172C9.21875 34.5898 9.51758 34.1328 9.89648 33.7461C10.2754 33.3555 10.7383 33.0469 11.2852 32.8203C11.8359 32.5938 12.4277 32.4805 13.0605 32.4805C13.6934 32.4805 14.2832 32.5938 14.8301 32.8203C15.3809 33.0469 15.8457 33.3555 16.2246 33.7461C16.6035 34.1328 16.9004 34.5898 17.1152 35.1172C17.3301 35.6445 17.4375 36.2051 17.4375 36.7988C17.4375 37.3926 17.3301 37.9531 17.1152 38.4805C16.9004 39.0078 16.6035 39.4668 16.2246 39.8574C15.8457 40.2441 15.3809 40.5508 14.8301 40.7773C14.2832 41.0039 13.6934 41.1172 13.0605 41.1172C12.4277 41.1172 11.8359 41.0039 11.2852 40.7773C10.7383 40.5508 10.2754 40.2441 9.89648 39.8574C9.51758 39.4668 9.21875 39.0078 9 38.4805ZM18.7617 41V32.5977H20.3789V41H18.7617ZM22.3008 41V32.5977H23.4375L28.1191 38.0703V32.5977H29.7422V41H28.5996L23.918 35.5273V41H22.3008ZM33.9902 32.5977H40.0488V34.0391H37.834V41H36.2109V34.0391H33.9902V32.5977ZM47.127 41V37.2207H42.9258V41H41.3086V32.5977H42.9258V35.7793H47.127V32.5977H48.75V41H47.127ZM55.7109 34.0391H52.2891V35.7793H54.873V37.2207H52.2891V39.5586H55.8281V41H50.6719V32.5977H55.7109V34.0391ZM64.3184 33.9219C63.7988 33.9219 63.3242 34.0508 62.8945 34.3086C62.4648 34.5625 62.1289 34.9102 61.8867 35.3516C61.6445 35.793 61.5234 36.2754 61.5234 36.7988C61.5234 37.6152 61.7988 38.3008 62.3496 38.8555C62.9004 39.4062 63.5801 39.6816 64.3887 39.6816C64.9004 39.6816 65.3574 39.5742 65.7598 39.3594C66.1621 39.1445 66.498 38.8633 66.7676 38.5156L67.8809 39.5117C67.4941 40.0039 66.9961 40.3945 66.3867 40.6836C65.7773 40.9727 65.0996 41.1172 64.3535 41.1172C63.7129 41.1172 63.1133 41.0059 62.5547 40.7832C62 40.5566 61.5293 40.25 61.1426 39.8633C60.7559 39.4766 60.4512 39.0195 60.2285 38.4922C60.0098 37.9609 59.9004 37.3965 59.9004 36.7988C59.9004 36.2012 60.0098 35.6387 60.2285 35.1113C60.4473 34.5801 60.748 34.1211 61.1309 33.7344C61.5176 33.3477 61.9863 33.043 62.5371 32.8203C63.0918 32.5938 63.6895 32.4805 64.3301 32.4805C64.9395 32.4805 65.5059 32.5859 66.0293 32.7969C66.5527 33.0078 67.0098 33.3027 67.4004 33.6816L66.3574 34.7832C65.7832 34.209 65.1035 33.9219 64.3184 33.9219ZM69.082 41V32.5977H70.6992V39.5586H74.2383V41H69.082ZM80.0625 40.9004C79.625 41.0449 79.1641 41.1172 78.6797 41.1172C78.1953 41.1172 77.7344 41.0449 77.2969 40.9004C76.8594 40.752 76.4805 40.5371 76.1602 40.2559C75.4414 39.6152 75.082 38.6836 75.082 37.4609V32.5977H76.6992V37.5781C76.6992 38.2773 76.8828 38.7988 77.25 39.1426C77.6211 39.502 78.0977 39.6816 78.6797 39.6816C79.2617 39.6816 79.7383 39.502 80.1094 39.1426C80.4766 38.7988 80.6602 38.2773 80.6602 37.5781V32.5977H82.2773V37.4609C82.2773 38.6836 81.918 39.6152 81.1992 40.2559C80.8789 40.5371 80.5 40.752 80.0625 40.9004ZM84.1406 32.5977H86.9941C87.4434 32.5977 87.8145 32.6484 88.1074 32.75C88.4004 32.8477 88.6582 32.9941 88.8809 33.1895C89.123 33.4004 89.3125 33.6523 89.4492 33.9453C89.5898 34.2383 89.6602 34.5508 89.6602 34.8828C89.6602 35.1445 89.6074 35.4062 89.502 35.668C89.3965 35.9258 89.2695 36.1309 89.1211 36.2832C89.4961 36.4707 89.7988 36.7598 90.0293 37.1504C90.2637 37.541 90.3809 37.9688 90.3809 38.4336C90.3809 38.7812 90.3125 39.1113 90.1758 39.4238C90.0391 39.7363 89.8516 40.0098 89.6133 40.2441C89.1094 40.748 88.377 41 87.416 41H84.1406V32.5977ZM85.7578 34.0391V35.8379H86.9004C87.3105 35.8379 87.6094 35.7383 87.7969 35.5391C87.957 35.3672 88.0371 35.168 88.0371 34.9414C88.0371 34.7109 87.957 34.5098 87.7969 34.3379C87.6094 34.1387 87.3105 34.0391 86.9004 34.0391H85.7578ZM85.7578 39.5586H87.3809C87.877 39.5586 88.2363 39.4355 88.459 39.1895C88.6582 38.9785 88.7578 38.7227 88.7578 38.4219C88.7578 38.1211 88.6582 37.8652 88.459 37.6543C88.2363 37.4043 87.877 37.2793 87.3809 37.2793H85.7578V39.5586Z" fill="#FDC2EC"/>
<path d="M55.2619 0H37.7381C36.2262 0.000513404 35.0007 1.22615 35 2.7381V12.962C35.0007 14.4739 36.2262 15.6997 37.7381 15.7001H55.2619C56.7738 15.6997 57.9993 14.4739 58 12.962V2.7381C57.9993 1.22615 56.7738 0.000513404 55.2619 0ZM37.7381 1.09524H55.2619C56.0506 1.09729 56.7275 1.65706 56.8774 2.43126L46.5 8.21429L36.1226 2.43126C36.2725 1.65706 36.9494 1.09729 37.7381 1.09524ZM55.2619 14.5995H37.7381C36.832 14.5968 36.0978 13.8628 36.0952 12.9567V3.66905L46.2317 9.32031C46.3138 9.36548 46.406 9.39013 46.5 9.39167C46.5943 9.39269 46.6869 9.36805 46.7683 9.32031L56.9048 3.66905V12.9567C56.9041 13.8637 56.1689 14.5987 55.2619 14.5995Z" fill="#FDC2EC"/>
</svg>
