<svg width="211" height="56" viewBox="0 0 211 56" fill="none" xmlns="http://www.w3.org/2000/svg">
<path d="M35.8828 28.1787H34.7979V35H31.833V19.5957H37.4404C38.8441 19.5957 39.9648 19.9788 40.8027 20.7451C41.2324 21.1533 41.5654 21.6296 41.8018 22.1738C42.0452 22.7109 42.167 23.2839 42.167 23.8926C42.167 24.5013 42.0452 25.0778 41.8018 25.6221C41.5654 26.1592 41.2324 26.6318 40.8027 27.04C40.3659 27.4554 39.8538 27.7562 39.2666 27.9424L45.0352 35H41.3613L35.8828 28.1787ZM34.7979 25.5361H37.2686C37.9775 25.5361 38.4753 25.3822 38.7617 25.0742C39.0553 24.7591 39.2021 24.3724 39.2021 23.9141C39.2021 23.4342 39.0553 23.0368 38.7617 22.7217C38.4609 22.3994 37.9632 22.2383 37.2686 22.2383H34.7979V25.5361ZM53.4678 31.6807L55.0898 33.3027C54.5814 33.9115 53.9368 34.3841 53.1562 34.7207C52.3757 35.0501 51.5628 35.2148 50.7178 35.2148C49.0993 35.2148 47.7637 34.7028 46.7109 33.6787C45.6582 32.6546 45.1318 31.319 45.1318 29.6719C45.1318 28.9342 45.2536 28.2288 45.4971 27.5557C45.7477 26.8825 46.0915 26.2917 46.5283 25.7832C46.9723 25.2676 47.5202 24.8594 48.1719 24.5586C48.8307 24.2578 49.5469 24.1074 50.3203 24.1074C51.2799 24.1074 52.1465 24.3581 52.9199 24.8594C53.6934 25.3535 54.2913 26.016 54.7139 26.8467C55.1436 27.6774 55.3584 28.5833 55.3584 29.5645C55.3584 29.8652 55.3369 30.1374 55.2939 30.3809H47.9033C47.9749 31.1257 48.2829 31.7344 48.8271 32.207C49.3714 32.6725 50.0231 32.9053 50.7822 32.9053C51.3337 32.9053 51.8421 32.7835 52.3076 32.54C52.7803 32.2965 53.167 32.0101 53.4678 31.6807ZM48.0322 28.2861H52.4365C52.3936 27.792 52.1715 27.3587 51.7705 26.9863C51.3695 26.6068 50.8861 26.417 50.3203 26.417C49.7402 26.417 49.2282 26.6032 48.7842 26.9756C48.3473 27.348 48.0967 27.7848 48.0322 28.2861ZM65.3701 19.3594L64.9297 21.7979C64.6576 21.7262 64.3747 21.6904 64.0811 21.6904C63.3506 21.6904 62.8135 21.8945 62.4697 22.3027C62.2048 22.6393 62.0723 23.2051 62.0723 24V24.333H65.3701V26.75H62.0723V35H59.2148V26.75H56.4648V24.333H59.2148V23.8926C59.2148 22.3099 59.5944 21.1497 60.3535 20.4121C61.2129 19.5742 62.3229 19.1553 63.6836 19.1553C64.2708 19.1553 64.833 19.2233 65.3701 19.3594ZM74.8018 31.6807L76.4238 33.3027C75.9154 33.9115 75.2708 34.3841 74.4902 34.7207C73.7096 35.0501 72.8968 35.2148 72.0518 35.2148C70.4333 35.2148 69.0977 34.7028 68.0449 33.6787C66.9922 32.6546 66.4658 31.319 66.4658 29.6719C66.4658 28.9342 66.5876 28.2288 66.8311 27.5557C67.0817 26.8825 67.4255 26.2917 67.8623 25.7832C68.3063 25.2676 68.8542 24.8594 69.5059 24.5586C70.1647 24.2578 70.8809 24.1074 71.6543 24.1074C72.6139 24.1074 73.4805 24.3581 74.2539 24.8594C75.0273 25.3535 75.6253 26.016 76.0479 26.8467C76.4775 27.6774 76.6924 28.5833 76.6924 29.5645C76.6924 29.8652 76.6709 30.1374 76.6279 30.3809H69.2373C69.3089 31.1257 69.6169 31.7344 70.1611 32.207C70.7054 32.6725 71.3571 32.9053 72.1162 32.9053C72.6676 32.9053 73.1761 32.7835 73.6416 32.54C74.1143 32.2965 74.501 32.0101 74.8018 31.6807ZM69.3662 28.2861H73.7705C73.7275 27.792 73.5055 27.3587 73.1045 26.9863C72.7035 26.6068 72.2201 26.417 71.6543 26.417C71.0742 26.417 70.5622 26.6032 70.1182 26.9756C69.6813 27.348 69.4307 27.7848 69.3662 28.2861ZM85.9307 24.1934L85.6084 26.8574C85.3936 26.7858 85.0498 26.75 84.5771 26.75C84.0042 26.75 83.4814 26.9111 83.0088 27.2334C82.5361 27.5557 82.1924 27.9066 81.9775 28.2861V35H79.1201V24.333H81.8701V25.4072C82.1924 25.0062 82.6257 24.6911 83.1699 24.4619C83.7214 24.2256 84.3193 24.1074 84.9639 24.1074C85.193 24.1074 85.5153 24.1361 85.9307 24.1934ZM101.442 31.2617V28.0713C101.142 27.6631 100.758 27.3408 100.293 27.1045C99.8346 26.8682 99.3369 26.75 98.7998 26.75C97.9906 26.75 97.3281 27.04 96.8125 27.6201C96.304 28.193 96.0498 28.877 96.0498 29.6719C96.0498 30.5098 96.3148 31.2044 96.8447 31.7559C97.3818 32.3073 98.055 32.583 98.8643 32.583C99.3942 32.583 99.8848 32.4648 100.336 32.2285C100.794 31.985 101.163 31.6628 101.442 31.2617ZM104.3 24.333V35H101.55V34.1406C100.712 34.8568 99.7201 35.2148 98.5742 35.2148C97.7936 35.2148 97.0488 35.0537 96.3398 34.7314C95.6309 34.4092 95.0365 33.9723 94.5566 33.4209C93.6471 32.3682 93.1924 31.1185 93.1924 29.6719C93.1924 28.1035 93.7008 26.7858 94.7178 25.7188C95.7347 24.6445 96.9701 24.1074 98.4238 24.1074C99.6126 24.1074 100.655 24.4691 101.55 25.1924V24.333H104.3ZM121.229 19.3594L120.789 21.7979C120.517 21.7262 120.234 21.6904 119.94 21.6904C119.21 21.6904 118.673 21.8945 118.329 22.3027C118.064 22.6393 117.932 23.2051 117.932 24V24.333H121.229V26.75H117.932V35H115.074V26.75H112.324V24.333H115.074V23.8926C115.074 22.3099 115.454 21.1497 116.213 20.4121C117.072 19.5742 118.182 19.1553 119.543 19.1553C120.13 19.1553 120.692 19.2233 121.229 19.3594ZM130.253 24.1934L129.931 26.8574C129.716 26.7858 129.372 26.75 128.899 26.75C128.326 26.75 127.804 26.9111 127.331 27.2334C126.858 27.5557 126.515 27.9066 126.3 28.2861V35H123.442V24.333H126.192V25.4072C126.515 25.0062 126.948 24.6911 127.492 24.4619C128.044 24.2256 128.642 24.1074 129.286 24.1074C129.515 24.1074 129.838 24.1361 130.253 24.1934ZM135.323 24.333V35H132.466V24.333H135.323ZM132.573 21.8408C132.208 21.4899 132.025 21.0566 132.025 20.541C132.025 20.0254 132.208 19.5921 132.573 19.2412C132.938 18.8903 133.379 18.7148 133.895 18.7148C134.41 18.7148 134.851 18.8903 135.216 19.2412C135.581 19.5921 135.764 20.0254 135.764 20.541C135.764 21.0566 135.581 21.4899 135.216 21.8408C134.851 22.1917 134.41 22.3672 133.895 22.3672C133.379 22.3672 132.938 22.1917 132.573 21.8408ZM146.087 31.6807L147.709 33.3027C147.201 33.9115 146.556 34.3841 145.775 34.7207C144.995 35.0501 144.182 35.2148 143.337 35.2148C141.718 35.2148 140.383 34.7028 139.33 33.6787C138.277 32.6546 137.751 31.319 137.751 29.6719C137.751 28.9342 137.873 28.2288 138.116 27.5557C138.367 26.8825 138.711 26.2917 139.147 25.7832C139.591 25.2676 140.139 24.8594 140.791 24.5586C141.45 24.2578 142.166 24.1074 142.939 24.1074C143.899 24.1074 144.766 24.3581 145.539 24.8594C146.312 25.3535 146.91 26.016 147.333 26.8467C147.763 27.6774 147.978 28.5833 147.978 29.5645C147.978 29.8652 147.956 30.1374 147.913 30.3809H140.522C140.594 31.1257 140.902 31.7344 141.446 32.207C141.991 32.6725 142.642 32.9053 143.401 32.9053C143.953 32.9053 144.461 32.7835 144.927 32.54C145.399 32.2965 145.786 32.0101 146.087 31.6807ZM140.651 28.2861H145.056C145.013 27.792 144.791 27.3587 144.39 26.9863C143.989 26.6068 143.505 26.417 142.939 26.417C142.359 26.417 141.847 26.6032 141.403 26.9756C140.966 27.348 140.716 27.7848 140.651 28.2861ZM153.263 35H150.405V24.333H153.155V25.1924C154.058 24.4691 155.06 24.1074 156.163 24.1074C156.886 24.1074 157.57 24.2614 158.215 24.5693C158.867 24.8701 159.414 25.2891 159.858 25.8262C160.231 26.263 160.507 26.7751 160.686 27.3623C160.872 27.9495 160.965 28.6836 160.965 29.5645V35H158.097V29.3496C158.097 28.4329 157.885 27.7633 157.463 27.3408C157.069 26.9469 156.535 26.75 155.862 26.75C155.311 26.75 154.799 26.8896 154.326 27.1689C153.861 27.4411 153.506 27.7419 153.263 28.0713V35ZM171.417 31.2617V28.0713C171.116 27.6631 170.733 27.3408 170.268 27.1045C169.809 26.8682 169.312 26.75 168.774 26.75C167.965 26.75 167.303 27.04 166.787 27.6201C166.279 28.193 166.024 28.877 166.024 29.6719C166.024 30.5098 166.289 31.2044 166.819 31.7559C167.356 32.3073 168.03 32.583 168.839 32.583C169.369 32.583 169.859 32.4648 170.311 32.2285C170.769 31.985 171.138 31.6628 171.417 31.2617ZM174.274 35H171.524V34.1406C170.687 34.8568 169.695 35.2148 168.549 35.2148C167.768 35.2148 167.023 35.0537 166.314 34.7314C165.605 34.4092 165.011 33.9723 164.531 33.4209C163.622 32.3682 163.167 31.1185 163.167 29.6719C163.167 28.1035 163.675 26.7858 164.692 25.7188C165.709 24.6445 166.945 24.1074 168.398 24.1074C169.566 24.1074 170.572 24.4368 171.417 25.0957V19.3809H174.274V35Z" fill="#9BE777"/>
<rect x="1" y="1" width="209" height="54" stroke="#8FE268" stroke-width="2"/>
</svg>
