<svg width="98" height="48" viewBox="0 0 98 48" fill="none" xmlns="http://www.w3.org/2000/svg">
<path d="M0.226562 41.8574L1.28711 40.7559C1.53711 41.0332 1.83594 41.2578 2.18359 41.4297C2.53516 41.5977 2.89648 41.6816 3.26758 41.6816C3.62695 41.6816 3.91992 41.582 4.14648 41.3828C4.37695 41.1797 4.49219 40.9258 4.49219 40.6211C4.49219 40.418 4.4375 40.2383 4.32812 40.082C4.21875 39.9258 4.0625 39.793 3.85938 39.6836C3.66016 39.5742 3.45508 39.4785 3.24414 39.3965C3.0332 39.3105 2.78711 39.209 2.50586 39.0918C2.22852 38.9746 1.99414 38.8613 1.80273 38.752C1.00977 38.2871 0.613281 37.6504 0.613281 36.8418C0.613281 36.4785 0.691406 36.1465 0.847656 35.8457C1.00781 35.541 1.2168 35.291 1.47461 35.0957C1.73633 34.9004 2.03125 34.75 2.35938 34.6445C2.69141 34.5352 3.0332 34.4805 3.38477 34.4805C4.29883 34.4805 5.11133 34.7441 5.82227 35.2715L4.97852 36.4727C4.80664 36.3125 4.58789 36.1816 4.32227 36.0801C4.06055 35.9746 3.79688 35.9219 3.53125 35.9219C3.37109 35.9219 3.2168 35.9395 3.06836 35.9746C2.91992 36.0098 2.78125 36.0625 2.65234 36.1328C2.52734 36.1992 2.42578 36.293 2.34766 36.4141C2.26953 36.5352 2.23047 36.6738 2.23047 36.8301C2.23047 36.9902 2.28516 37.1367 2.39453 37.2695C2.50781 37.3984 2.6543 37.5059 2.83398 37.5918C3.01758 37.6777 3.22461 37.7715 3.45508 37.873C3.68945 37.9707 3.92773 38.0664 4.16992 38.1602C4.41211 38.2539 4.64844 38.375 4.87891 38.5234C5.11328 38.668 5.32031 38.8281 5.5 39.0039C5.68359 39.1797 5.83008 39.4043 5.93945 39.6777C6.05273 39.9512 6.10938 40.2578 6.10938 40.5977C6.10938 41.0781 5.97656 41.5137 5.71094 41.9043C5.44922 42.2949 5.10156 42.5957 4.66797 42.8066C4.23828 43.0137 3.77148 43.1172 3.26758 43.1172C2.1543 43.1172 1.14062 42.6973 0.226562 41.8574ZM13.3105 43V39.2207H9.10938V43H7.49219V34.5977H9.10938V37.7793H13.3105V34.5977H14.9336V43H13.3105ZM17.5879 43H15.8945L19.4922 34.5977H20.6348L24.2324 43H22.5449L21.748 41.1426H18.3789L17.5879 43ZM20.0605 37.2168L18.9883 39.7012H21.127L20.0605 37.2168ZM27.4082 39.2793H26.8164V43H25.1992V34.5977H28.2578C29.0234 34.5977 29.6348 34.8066 30.0918 35.2246C30.3262 35.4473 30.5078 35.707 30.6367 36.0039C30.7695 36.2969 30.8359 36.6094 30.8359 36.9414C30.8359 37.2734 30.7695 37.5879 30.6367 37.8848C30.5078 38.1777 30.3262 38.4355 30.0918 38.6582C29.8535 38.8848 29.5742 39.0488 29.2539 39.1504L32.4004 43H30.3965L27.4082 39.2793ZM26.8164 37.8379H28.1641C28.5508 37.8379 28.8223 37.7539 28.9785 37.5859C29.1387 37.4141 29.2188 37.2031 29.2188 36.9531C29.2188 36.6914 29.1387 36.4746 28.9785 36.3027C28.8145 36.127 28.543 36.0391 28.1641 36.0391H26.8164V37.8379ZM38.2773 36.0391H34.8555V37.7793H37.4395V39.2207H34.8555V41.5586H38.3945V43H33.2383V34.5977H38.2773V36.0391ZM42.1621 34.5977H48.2207V36.0391H46.0059V43H44.3828V36.0391H42.1621V34.5977ZM55.2988 43V39.2207H51.0977V43H49.4805V34.5977H51.0977V37.7793H55.2988V34.5977H56.9219V43H55.2988ZM63.8828 36.0391H60.4609V37.7793H63.0449V39.2207H60.4609V41.5586H64V43H58.8438V34.5977H63.8828V36.0391ZM68.6758 43V34.5977H70.293V41.5586H73.832V43H68.6758ZM76.2871 37.3574C76.0488 37.7949 75.9297 38.2754 75.9297 38.7988C75.9297 39.3223 76.0488 39.8047 76.2871 40.2461C76.5254 40.6836 76.8555 41.0332 77.2773 41.2949C77.7031 41.5527 78.1738 41.6816 78.6895 41.6816C79.2051 41.6816 79.6738 41.5527 80.0957 41.2949C80.5215 41.0332 80.8535 40.6836 81.0918 40.2461C81.3301 39.8047 81.4492 39.3223 81.4492 38.7988C81.4492 38.2754 81.3301 37.7949 81.0918 37.3574C80.8535 36.916 80.5215 36.5664 80.0957 36.3086C79.6738 36.0508 79.2051 35.9219 78.6895 35.9219C78.1738 35.9219 77.7031 36.0508 77.2773 36.3086C76.8555 36.5664 76.5254 36.916 76.2871 37.3574ZM74.6289 40.4805C74.4141 39.9531 74.3066 39.3926 74.3066 38.7988C74.3066 38.2051 74.4141 37.6445 74.6289 37.1172C74.8477 36.5898 75.1465 36.1328 75.5254 35.7461C75.9043 35.3555 76.3672 35.0469 76.9141 34.8203C77.4648 34.5938 78.0566 34.4805 78.6895 34.4805C79.3223 34.4805 79.9121 34.5938 80.459 34.8203C81.0098 35.0469 81.4746 35.3555 81.8535 35.7461C82.2324 36.1328 82.5293 36.5898 82.7441 37.1172C82.959 37.6445 83.0664 38.2051 83.0664 38.7988C83.0664 39.3926 82.959 39.9531 82.7441 40.4805C82.5293 41.0078 82.2324 41.4668 81.8535 41.8574C81.4746 42.2441 81.0098 42.5508 80.459 42.7773C79.9121 43.0039 79.3223 43.1172 78.6895 43.1172C78.0566 43.1172 77.4648 43.0039 76.9141 42.7773C76.3672 42.5508 75.9043 42.2441 75.5254 41.8574C75.1465 41.4668 74.8477 41.0078 74.6289 40.4805ZM86.6406 43L83.2422 34.5977H84.9121L87.2031 40.334L89.5117 34.5977H91.1758L87.7832 43H86.6406ZM97.293 36.0391H93.8711V37.7793H96.4551V39.2207H93.8711V41.5586H97.4102V43H92.2539V34.5977H97.293V36.0391Z" fill="#FDC2EC"/>
<path d="M53.1962 0.950411C51.4319 0.941021 49.7537 1.70718 48.6053 3.04393C47.4636 1.69796 45.7806 0.92964 44.0137 0.950411C40.6648 0.95057 37.95 3.66543 37.95 7.01437C37.95 8.45174 38.5769 9.8764 39.5176 11.2056C40.4586 12.5352 41.7164 13.7733 42.9851 14.8387C45.5138 16.9621 48.0923 18.4045 48.3109 18.5215C48.4892 18.6395 48.7208 18.6395 48.8992 18.5215C49.1175 18.4048 51.696 16.9825 54.2249 14.8689C55.4936 13.8086 56.7515 12.5729 57.6925 11.2395C58.6332 9.90643 59.2601 8.47174 59.2601 7.01437C59.2601 3.66537 56.5452 0.950482 53.1962 0.950411ZM53.1962 0.950411C53.1962 0.950411 53.1961 0.950411 53.1961 0.950411V1.00041L53.1963 0.950411C53.1963 0.950411 53.1962 0.950411 53.1962 0.950411ZM44.014 2.12429L44.0147 2.12428C45.6681 2.10257 47.2155 2.93658 48.1065 4.32961L48.1064 4.32966L48.1081 4.33203C48.3072 4.60645 48.691 4.6676 48.9654 4.46854L48.9654 4.46853C49.0178 4.43051 49.0639 4.38446 49.1019 4.33201L49.102 4.33205L49.1033 4.33004C50.5813 2.06967 53.6119 1.43544 55.8722 2.91344C57.256 3.81824 58.0888 5.36095 58.0861 7.01424V7.01432C58.0861 8.16819 57.5935 9.33626 56.8247 10.4558C56.056 11.5749 55.014 12.6415 53.9217 13.5914C51.7602 15.4711 49.4077 16.8888 48.6054 17.3469C47.8028 16.8754 45.4501 15.4445 43.2884 13.5612C42.196 12.6096 41.154 11.5438 40.3853 10.4293C39.6164 9.31433 39.1239 8.1547 39.1239 7.01437C39.1239 4.31369 41.3133 2.12429 44.014 2.12429Z" fill="#FDC2EC" stroke="#FDC2EC" stroke-width="0.1"/>
</svg>
