<svg width="32" height="20" viewBox="0 0 32 20" fill="none" xmlns="http://www.w3.org/2000/svg">
<path fill-rule="evenodd" clip-rule="evenodd" d="M17.0748 4.95725C17.0748 5.45028 16.6757 5.84998 16.1834 5.84998C15.6911 5.84998 15.292 5.45028 15.292 4.95725V0.892727C15.292 0.399704 15.6911 0 16.1834 0C16.6757 0 17.0748 0.399704 17.0748 0.892727V4.95725ZM26.4466 14.3433H30.5051C30.9974 14.3433 31.3965 14.743 31.3965 15.236C31.3965 15.729 30.9974 16.1287 30.5051 16.1287H26.4466C25.9544 16.1287 25.5553 15.729 25.5553 15.236C25.5553 14.743 25.9544 14.3433 26.4466 14.3433ZM6.81148 15.236C6.81148 14.743 6.41237 14.3433 5.92008 14.3433H1.86161C1.36932 14.3433 0.970215 14.743 0.970215 15.236C0.970215 15.729 1.36932 16.1287 1.86161 16.1287H5.92008C6.41237 16.1287 6.81148 15.729 6.81148 15.236ZM25.1288 7.58783C24.9548 7.76215 24.7266 7.84934 24.4985 7.84934C24.2704 7.84934 24.0423 7.76215 23.8682 7.58783C23.5201 7.23919 23.5201 6.67392 23.8682 6.32534L26.0582 4.13209C26.4064 3.78345 26.9709 3.78345 27.3189 4.13209C27.667 4.48072 27.667 5.046 27.3189 5.39458L25.1288 7.58783ZM7.23779 7.58783C7.41185 7.76215 7.63999 7.84934 7.86807 7.84934C8.09615 7.84934 8.32434 7.76221 8.49834 7.58783C8.84646 7.23919 8.84646 6.67398 8.49834 6.32534L6.30836 4.13209C5.9603 3.78345 5.39587 3.78345 5.04775 4.13209C4.69963 4.48072 4.69963 5.04594 5.04775 5.39458L7.23779 7.58783ZM23.281 18.2144H27.1852C27.6775 18.2144 28.0766 18.6141 28.0766 19.1072C28.0766 19.6002 27.6775 19.9999 27.1852 19.9999H5.18154C4.68925 19.9999 4.29014 19.6002 4.29014 19.1072C4.29014 18.6141 4.68925 18.2144 5.18154 18.2144H9.08502C8.69251 17.2759 8.48767 16.2629 8.48767 15.2358C8.48767 10.986 11.94 7.52856 16.1834 7.52856C20.4268 7.52856 23.8791 10.986 23.8791 15.2358C23.8791 16.265 23.6737 17.2762 23.281 18.2144ZM16.1834 9.31402C12.923 9.31402 10.2705 11.9705 10.2705 15.2358C10.2705 16.2848 10.5481 17.3139 11.0728 18.2144H21.2938C21.8189 17.3129 22.0963 16.2867 22.0963 15.2358C22.0963 11.9705 19.4438 9.31402 16.1834 9.31402Z" fill="#4A4A4A"/>
</svg>
