<svg width="315" height="960" viewBox="0 0 315 960" fill="none" xmlns="http://www.w3.org/2000/svg">
<mask id="path-1-inside-1" fill="white">
<path fill-rule="evenodd" clip-rule="evenodd" d="M10 0C4.47715 0 0 4.47717 0 10V960H315V55.5294H257.293L225 0H10Z"/>
</mask>
<path fill-rule="evenodd" clip-rule="evenodd" d="M10 0C4.47715 0 0 4.47717 0 10V960H315V55.5294H257.293L225 0H10Z" fill="white"/>
<path d="M0 960H-2V962H0V960ZM315 960V962H317V960H315ZM315 55.5294H317V53.5294H315V55.5294ZM257.293 55.5294L255.564 56.5348L256.142 57.5294H257.293V55.5294ZM225 0L226.729 -1.00543L226.151 -2H225V0ZM2 10C2 5.58174 5.58173 2 10 2V-2C3.37258 -2 -2 3.37261 -2 10H2ZM2 960V10H-2V960H2ZM315 958H0V962H315V958ZM313 55.5294V960H317V55.5294H313ZM315 53.5294H257.293V57.5294H315V53.5294ZM259.021 54.524L226.729 -1.00543L223.271 1.00543L255.564 56.5348L259.021 54.524ZM10 2H225V-2H10V2Z" fill="#4A4A4A" mask="url(#path-1-inside-1)"/>
</svg>
